<?xml version="1.0" encoding="UTF-8" standalone="no"?>
<svg xmlns:dc="http://purl.org/dc/elements/1.1/" xmlns:cc="http://creativecommons.org/ns#" xmlns:rdf="http://www.w3.org/1999/02/22-rdf-syntax-ns#" xmlns:svg="http://www.w3.org/2000/svg" xmlns="http://www.w3.org/2000/svg" xmlns:sodipodi="http://sodipodi.sourceforge.net/DTD/sodipodi-0.dtd" xmlns:inkscape="http://www.inkscape.org/namespaces/inkscape" id="raven" version="1.1" inkscape:version="0.48.3.1 r9886" width="731.5" height="541.5" sodipodi:docname="pawelf_Raven.svg">
  <defs id="defs13"/>
  <sodipodi:namedview pagecolor="#ffffff" bordercolor="#666666" borderopacity="1" objecttolerance="10" gridtolerance="10" guidetolerance="10" inkscape:pageopacity="0" inkscape:pageshadow="2" inkscape:window-width="681" inkscape:window-height="766" id="namedview11" showgrid="false" fit-margin-top="0" fit-margin-left="0" fit-margin-right="0" fit-margin-bottom="0" inkscape:zoom="0.22425739" inkscape:cx="214.04724" inkscape:cy="97.318909" inkscape:window-x="0" inkscape:window-y="0" inkscape:window-maximized="0" inkscape:current-layer="raven"/>
  <g transform="matrix(0.5,0,0,0.5,-158,-82)" id="g3">
    <path id="wing" d="m 1433,165 c -25,0 -47,2 -60,7 -28,5 -70,28 -147,121 -54,66 -180,144 -205,162 -234,177 -419,361 -419,404 0,6 -226,312 -206,315 57,10 322,-115 451,-192 180,-107 375,-207 467,-283 80,-67 329,-234 278,-335 -14,-27 8,-27 -76,-17 -24,3 -65,-15 -46,-41 30,-42 159,-68 156,-86 -7,-36 -118,-56 -194,-56 v 1 z m 40,66 c 15,0 27,12 27,27 0,15 -12,27 -27,27 -15,0 -27,-12 -27,-27 0,-15 12,-27 27,-27 z" inkscape:connector-curvature="0" style="fill:#4d4d4d"/>
    <path id="pecker" d="m 1627,223 118,57 33,32 -191,25 -68,11 c 0,0 -53,-5 -57,-15 -6,-13 0,-34 13,-40 l 130,-62" inkscape:connector-curvature="0" style="fill:#cccccc"/>
    <path id="foots" d="m 1066,996 15,-4 76,44 50,27 c 26,16 28,8 37,7 l 31,-41 c 36,27 127,46 171,54 l 26,48 -79,-18 -24,13 -108,-41 54,41 -48,-15 -37,-1 -8,17 -34,-22 -85,7 11,-29 35,-18 -84,-69 z" inkscape:connector-curvature="0" style="fill:#b3b3b3"/>
    <path id="mainbody" d="m 380,1240 c -2,0 -4,-1 -4,-2 -1,-2 3,-8 9,-15 2,-3 6,-8 8,-11 2,-3 5,-7 7,-9 3,-4 4,-7 3,-8 -1,-1 -3,0 -9,3 -4,2 -8,5 -9,5 -1,1 -2,2 -4,3 -2,1 -5,2 -7,3 -2,1 -8,5 -13,9 -12,10 -13,10 -20,10 -4,0 -7,1 -11,3 -7,3 -13,5 -14,5 0,0 2,-3 6,-7 4,-4 15,-15 25,-26 26,-28 34,-36 71,-70 4,-4 14,-13 24,-22 9,-9 21,-19 26,-24 5,-5 10,-10 11,-12 2,-4 11,-9 9,-6 -1,1 -7,8 -15,15 -13,12 -30,30 -26,28 3,-2 17,-13 27,-22 27,-23 38,-33 53,-45 9,-7 17,-14 18,-16 1,-2 5,-4 8,-7 3,-2 8,-7 12,-10 4,-4 8,-7 9,-7 1,0 10,-8 20,-17 10,-9 20,-18 23,-20 3,-2 7,-5 8,-6 4,-4 4,-2 0,2 -20,21 -24,24 -42,39 -2,2 -7,6 -10,9 -3,3 -9,9 -13,13 -19,18 -37,35 -47,43 -6,5 -15,13 -21,18 -10,8 -21,18 -34,28 -2,2 -8,7 -13,12 -9,8 -13,11 -28,24 -9,7 -11,11 -6,8 2,-1 3,-2 4,-3 1,-1 17,-13 30,-23 3,-2 9,-6 12,-9 3,-3 8,-6 10,-8 3,-2 7,-6 10,-8 3,-3 9,-7 13,-11 7,-5 11,-8 25,-20 1,-1 4,-3 5,-5 1,-2 4,-3 5,-4 1,-1 4,-4 7,-6 3,-2 9,-8 14,-11 5,-4 15,-13 24,-21 9,-8 22,-20 30,-26 8,-7 21,-19 29,-27 8,-8 19,-19 25,-24 5,-5 10,-10 10,-10 0,-1 -1,-2 -2,-2 -2,-1 -3,-1 -8,2 -3,2 -7,4 -9,6 -3,3 -6,4 -6,2 0,-2 -1,-3 -8,-2 -9,1 -26,8 -31,12 -7,6 -30,26 -47,41 -9,8 -22,20 -30,27 -8,7 -18,17 -24,22 -10,9 -18,15 -23,15 -1,0 -11,4 -21,9 -36,18 -38,19 -55,24 -4,1 -7,2 -30,14 -15,7 -21,9 -23,7 -1,-1 0,-2 1,-3 2,-1 3,-3 3,-4 0,-3 5,-9 9,-12 1,-1 9,-8 17,-16 8,-8 18,-17 22,-20 4,-3 9,-7 10,-8 1,-1 5,-5 8,-7 3,-2 9,-7 13,-10 4,-3 8,-6 8,-6 0,0 -1,-1 -1,-2 -1,-1 -1,-1 0,-3 2,-2 12,-10 14,-10 1,0 1,-1 2,-1 0,-1 5,-5 11,-9 6,-4 10,-8 11,-9 0,0 4,-3 9,-6 11,-8 13,-9 16,-12 2,-1 4,-3 5,-4 1,-1 7,-5 13,-9 6,-4 12,-8 14,-10 5,-3 8,-7 8,-9 0,-2 8,-7 41,-28 6,-4 12,-8 15,-11 5,-5 14,-10 20,-10 2,0 6,-3 10,-5 10,-7 11,-8 16,-11 3,-1 10,-6 17,-9 7,-3 13,-8 16,-9 3,-1 8,-5 14,-8 5,-3 17,-9 26,-14 9,-5 19,-11 23,-13 4,-2 13,-7 22,-12 9,-5 18,-10 21,-11 3,-2 12,-7 19,-11 8,-4 15,-9 18,-10 3,-3 4,-3 11,-2 6,0 7,0 9,-2 1,-1 1,-3 1,-3 -1,-2 2,-4 4,-3 1,1 1,1 0,3 -1,1 -1,3 -1,4 0,2 -5,5 -7,5 -2,0 -10,5 -11,7 -1,3 0,3 5,1 3,-1 5,-1 6,-1 2,2 0,4 -3,4 -2,0 -4,1 -6,3 -3,3 -3,4 -2,7 0,3 0,3 -1,3 -1,0 -3,2 -4,5 -2,4 -3,5 -2,8 1,5 5,8 10,8 9,0 30,-7 38,-13 2,-1 3,-2 4,-2 1,0 16,-8 21,-11 4,-3 21,-12 37,-20 4,-2 11,-6 16,-9 5,-3 11,-7 13,-8 2,-1 6,-4 9,-6 3,-2 7,-4 9,-5 2,-1 5,-3 7,-5 4,-4 4,-7 1,-4 -2,2 -15,8 -26,12 -3,1 -8,3 -9,4 -1,1 -6,3 -10,5 -4,2 -8,4 -8,4 0,1 -4,3 -8,4 -4,1 -9,4 -11,5 -2,1 -4,2 -5,2 -1,0 -4,2 -6,3 -2,1 -7,4 -8,5 -2,1 -4,2 -6,3 -1,1 -5,2 -7,3 -2,1 -9,4 -15,7 -14,7 -18,9 -25,9 -5,0 -7,1 -10,2 -4,3 -5,3 -5,1 0,-1 1,-2 2,-3 1,-1 2,-2 3,-3 1,-2 1,-2 5,-2 2,0 6,0 9,-1 5,-1 19,-8 25,-12 2,-1 8,-5 15,-8 6,-3 12,-6 14,-7 1,-1 5,-3 8,-4 3,-1 7,-3 9,-4 2,-1 8,-5 13,-7 5,-3 10,-6 11,-6 4,-2 29,-14 33,-16 2,-1 5,-2 7,-3 3,-2 13,-13 15,-17 1,-3 1,-3 0,-3 -1,0 -3,1 -4,1 -1,1 -4,2 -6,3 -2,1 -3,2 -3,2 0,0 -2,2 -5,3 -16,7 -43,20 -50,25 -2,1 -5,3 -7,4 -6,3 -8,4 -15,7 -3,2 -7,3 -7,3 -1,0 -4,2 -8,4 -4,2 -9,4 -11,5 -2,0 -5,1 -6,2 -2,1 -4,1 -5,0 -2,-1 -2,-1 0,-2 1,-1 4,-1 6,-1 4,0 30,-13 45,-22 9,-5 11,-7 20,-11 3,-2 9,-5 14,-8 9,-5 27,-13 38,-17 4,-1 9,-3 10,-4 1,-1 5,-3 8,-3 3,-1 6,-2 7,-3 1,-1 5,-4 8,-6 3,-2 8,-5 9,-6 1,-1 3,-2 4,-2 1,0 3,-1 4,-2 1,-1 3,-2 4,-3 1,0 2,-1 1,-1 -1,0 -2,0 -3,1 -1,1 -3,1 -4,1 -2,0 -4,1 -21,9 -5,2 -9,4 -9,4 -1,0 -4,2 -8,4 -4,2 -11,5 -16,7 -5,2 -9,4 -10,5 -1,1 -4,2 -6,3 -3,1 -5,3 -6,4 -1,1 -2,2 -3,2 -1,0 -4,2 -7,4 -3,2 -11,7 -18,11 -7,3 -12,7 -13,7 -2,2 -16,8 -19,8 -5,0 -3,-2 2,-4 7,-2 21,-9 27,-13 2,-2 4,-3 5,-3 0,0 3,-2 7,-4 3,-2 8,-5 10,-6 2,-1 4,-2 5,-3 1,0 4,-3 7,-5 6,-4 12,-7 44,-22 15,-7 20,-10 22,-11 1,-1 4,-2 6,-3 2,-1 6,-3 9,-5 2,-2 6,-4 7,-4 5,-3 6,-3 6,-5 0,-3 -4,-3 -8,1 -2,2 -4,3 -5,3 -1,0 -3,1 -4,1 -3,2 -20,9 -32,13 -9,3 -12,3 -15,3 -5,-1 -4,-2 3,-3 8,-1 27,-9 45,-18 8,-4 8,-5 6,-6 -2,-1 -2,-1 1,-3 10,-4 17,-8 24,-15 5,-4 8,-9 8,-10 0,-1 1,-2 2,-2 1,0 2,-1 2,-2 0,-1 1,-3 2,-4 3,-3 8,-11 8,-12 0,-2 -4,-1 -6,2 -1,2 -3,4 -5,4 -1,1 -5,3 -7,6 -5,5 -16,13 -22,16 -7,4 -12,7 -17,10 -3,2 -5,3 -6,3 -1,0 -3,1 -4,1 -1,1 -5,2 -8,3 -6,2 -11,4 -16,7 -3,2 -11,5 -12,4 0,0 7,-4 13,-7 1,0 4,-2 6,-3 2,-1 8,-4 12,-5 4,-1 9,-4 12,-5 3,-2 5,-3 5,-3 1,0 17,-12 22,-17 4,-4 6,-6 6,-8 0,-3 2,-4 2,-2 1,2 4,1 8,-3 3,-2 5,-5 5,-7 0,-2 1,-3 3,-2 1,0 3,0 5,-1 4,-2 16,-14 16,-15 0,-1 -1,-2 -3,-3 -2,-1 -3,-2 -3,-4 0,-2 1,-2 5,-2 3,0 5,1 6,2 2,4 5,5 7,5 4,0 14,-7 16,-10 0,-1 1,-2 2,-2 1,0 1,-1 0,-3 -1,-2 -2,-4 -2,-4 0,0 -1,-2 -1,-3 0,-2 0,-2 -4,0 -2,1 -4,1 -5,1 -1,-1 -2,-1 -3,-1 -1,0 -2,-1 -2,-3 0,-3 1,-4 4,-2 2,1 6,0 9,-3 3,-3 5,-1 4,2 v 3 c 0,0 1,1 1,3 0,1 0,2 2,1 1,0 2,-1 3,-1 2,0 11,-6 16,-11 2,-2 5,-4 5,-4 0,0 2,-1 4,-3 2,-2 3,-3 3,-5 0,-2 0,-3 1,-3 0,0 1,-4 1,-7 0,-5 0,-7 -1,-7 -3,-1 0,-7 6,-13 3,-3 5,-4 5,-3 1,1 -1,4 -3,4 -1,0 -4,5 -3,6 1,1 14,-4 18,-7 4,-2 6,-5 3,-5 -1,0 -2,-1 -3,-2 -2,-2 -4,-2 -7,1 -2,2 -4,3 -3,1 0,-1 1,-2 3,-3 3,-2 3,-2 2,-6 0,-2 -1,-5 -1,-7 0,-2 0,-3 -1,-3 -1,0 -1,0 -1,-1 1,-2 9,-9 11,-10 1,0 3,-1 3,-2 1,-1 2,-1 2,-1 2,0 1,3 -2,6 -7,7 7,5 17,-1 6,-4 8,-4 5,-1 -1,1 -3,4 -3,6 -1,3 -1,3 -4,3 -2,0 -6,0 -10,1 -7,2 -7,2 -9,0 -2,-3 -4,0 -4,5 0,4 0,5 3,6 2,1 4,2 6,1 2,0 3,0 4,1 1,4 6,5 9,1 1,-1 3,-2 4,-2 3,0 9,-2 9,-4 0,-1 1,-2 2,-2 1,0 4,-3 7,-6 3,-3 6,-5 6,-4 0,1 -2,3 -4,5 -3,3 -5,6 -6,7 -1,3 0,3 3,1 12,-8 14,-9 15,-9 1,0 2,0 2,1 0,1 -10,11 -11,11 -1,0 -3,4 -2,5 1,3 4,2 7,-3 3,-6 11,-13 12,-13 1,0 2,1 2,1 1,1 2,1 4,-1 4,-3 5,-2 4,1 -1,5 -3,6 -9,6 -4,0 -6,1 -7,3 -3,3 -2,8 0,11 l 2,2 3,-2 c 2,-2 3,-3 4,-6 1,-2 1,-5 2,-5 l 4,1 c 2,1 5,2 7,2 2,0 4,1 6,2 2,2 3,2 7,1 2,-1 6,-2 7,-3 1,-1 4,-2 5,-2 1,0 2,-1 2,-2 0,-1 1,-1 3,-1 1,0 3,0 4,-2 1,-2 3,-2 3,-2 2,1 -2,7 -5,7 h -3 c -1,0 -4,3 -7,6 -3,3 -6,6 -7,6 -2,0 -5,6 -5,9 0,2 1,2 3,2 4,0 4,2 1,4 -3,2 -4,6 0,5 1,0 3,-1 4,-2 1,-1 3,-2 4,-2 1,0 4,-2 5,-4 3,-3 3,-3 2,-7 -2,-6 0,-7 6,-6 4,1 5,0 11,-3 4,-2 7,-3 7,-3 0,1 -2,4 -4,7 -3,5 -3,7 -3,9 1,3 3,4 4,2 0,-1 1,-1 2,-1 2,0 4,-3 2,-4 -1,0 0,-1 1,-2 2,-1 2,-1 6,1 l 3,3 2,-2 c 5,-5 7,-12 7,-24 0,-16 -1,-26 -5,-28 -1,0 -2,-1 -4,-1 -2,0 -3,0 -3,-1 0,-1 1,-1 2,-1 1,0 2,-1 2,-2 0,-2 -4,-7 -5,-7 -1,0 -4,-3 -7,-6 -7,-7 -13,-10 -16,-8 -3,2 -4,2 -4,-2 0,-4 -3,-5 -8,-3 -4,2 -10,2 -10,1 0,0 1,-2 2,-3 1,-2 1,-2 0,-3 -1,-1 -4,-1 -6,-2 -7,-1 -7,-1 -6,-3 2,-2 1,-4 -4,-5 -5,-1 -6,-4 -3,-6 2,-1 2,-2 2,-5 -1,-3 -1,-3 -5,-4 -2,-1 -4,-2 -4,-2 0,0 -1,-2 -3,-2 l -3,-1 3,-1 c 3,-1 7,-7 6,-9 0,-1 -2,-2 -4,-2 -3,-1 -4,-1 -2,-5 1,-3 1,-3 0,-3 -1,0 -2,0 -3,-1 -1,-1 -5,0 -7,1 -2,2 -4,1 -3,-1 0,-1 0,-2 -1,-3 -1,0 -2,-1 -3,-2 -1,-1 -2,-1 -6,0 -8,2 -9,2 -9,0 1,-3 -3,-4 -7,-1 -4,3 -4,3 -5,0 0,-2 -1,-2 -5,-2 -3,0 -5,0 -5,-2 0,-1 0,-2 2,-2 1,0 2,-1 3,-2 1,-3 3,-2 5,2 1,3 1,3 3,2 2,-1 2,-2 -1,-5 -1,-2 -3,-3 -3,-4 0,-2 -2,-1 -7,2 -4,3 -4,3 -6,2 -1,-1 -4,-1 -7,-1 h -5 v -4 c 0,-4 0,-4 1,-3 1,1 5,1 8,2 6,0 7,0 7,-1 1,-3 0,-4 -3,-4 -1,0 -1,-1 -1,-1 0,-1 -1,-2 -2,-3 -2,-1 -2,-2 -1,-3 1,-1 2,-1 3,-1 1,0 2,0 3,-1 1,-1 2,-2 1,-4 l -2,-2 c 0,0 -1,-1 0,-3 1,-5 -4,-8 -6,-3 -1,3 -3,3 -4,1 0,-1 -1,-2 -2,-2 -2,0 -2,-2 1,-5 2,-2 3,-3 3,-2 3,3 12,-5 14,-12 0,-1 2,-2 3,-2 2,0 3,-1 3,-2 0,-1 -1,-2 -1,-2 0,0 -2,-1 -2,-1 0,-1 -1,0 -4,1 -6,5 -4,1 3,-6 4,-4 9,-9 12,-11 2,-2 6,-5 7,-6 2,-1 3,-2 3,-3 0,-1 5,-6 14,-14 3,-3 3,-3 6,-2 2,1 3,1 6,0 4,-2 4,-3 0,-5 -3,-2 -4,-3 -1,-5 3,-2 6,-1 6,1 0,1 1,2 2,2 2,0 3,-2 2,-4 -2,-2 2,-7 6,-11 4,-3 5,-4 7,-2 2,1 7,-1 12,-7 2,-2 5,-5 7,-5 2,0 4,-1 4,-2 2,-2 5,-2 7,-1 2,1 3,0 5,-5 1,-4 5,-6 12,-8 2,0 4,-2 5,-3 3,-3 8,-5 10,-4 2,1 -1,7 -4,7 -2,0 -3,2 -2,2 1,1 9,-2 11,-3 1,-1 1,-1 0,-2 -1,-1 -1,-2 0,-3 2,-2 4,-2 6,1 2,2 2,3 2,5 -1,2 0,3 1,3 1,0 2,-1 2,-2 1,-2 3,-2 4,0 0,1 2,2 10,2 16,0 21,2 12,4 -4,1 -8,4 -7,6 0,1 1,1 1,1 0,0 4,-1 7,-1 5,0 7,-1 11,-3 3,-2 5,-3 5,-2 1,2 3,1 7,-1 4,-2 7,-3 11,0 3,1 3,1 7,0 3,-1 4,-2 5,-4 0,-1 1,-2 3,-3 2,-1 3,-1 4,-4 0,-2 1,-3 3,-3 2,0 3,-1 3,-2 0,-1 1,-2 2,-1 1,0 4,1 6,1 5,1 7,2 7,5 0,3 0,3 -6,4 -4,1 -4,0 -4,-1 0,-3 -1,-3 -5,-2 l -3,2 3,3 c 2,2 4,3 7,3 2,0 5,1 6,2 3,3 6,2 5,-2 0,-2 0,-3 2,-3 1,0 3,0 4,1 1,1 2,1 5,0 4,-1 5,-1 3,1 -2,2 -1,3 2,3 3,0 3,0 3,-2 -1,-2 1,-4 5,-4 4,-1 5,0 6,3 0,1 1,3 3,4 1,1 3,2 3,2 0,0 2,1 3,1 2,0 2,-1 3,-3 0,-2 1,-3 3,-3 3,0 3,2 0,5 -2,2 -2,2 -1,4 2,2 2,2 5,0 4,-2 7,-2 8,0 1,3 1,3 -1,3 -3,-1 -5,2 -4,6 1,5 -1,5 -4,0 l -1,-3 v 3 c 0,2 -1,3 -3,3 -2,0 -5,4 -5,9 0,4 -2,2 -3,-2 0,-4 0,-4 -3,-3 -3,1 -3,6 -1,10 2,5 2,6 -1,4 -1,-1 -2,-3 -2,-5 0,-2 0,-3 -1,-3 -1,0 -2,3 -2,7 0,6 -13,14 -20,13 -5,-1 -5,1 0,2 2,1 5,2 6,2 3,2 6,2 8,1 1,-1 3,-1 4,-1 2,1 9,-2 10,-4 0,-1 2,-2 3,-2 2,-1 2,-1 2,-3 0,-1 0,-2 1,-3 1,-1 2,-3 2,-5 0,-4 2,-5 3,-1 0,1 0,3 -1,4 -2,2 -2,4 0,5 2,1 1,3 -2,5 -1,1 -3,2 -4,4 -3,6 -20,10 -33,7 -5,-1 -5,-1 -4,2 0,1 1,3 1,5 0,1 1,3 3,3 3,1 3,3 0,11 -1,2 -2,6 -2,8 -1,10 -1,11 1,14 2,3 2,3 0,3 -5,1 -7,5 -4,6 1,0 2,2 2,5 1,5 1,5 0,8 -1,2 -1,2 3,2 2,0 5,-1 6,-2 1,-1 3,-1 4,-1 1,0 5,7 5,8 -1,1 -10,1 -12,0 -2,-1 -6,1 -6,3 0,3 -9,13 -15,15 -5,3 -7,4 -7,5 0,0 3,-1 7,-2 4,-1 7,-3 8,-3 1,0 3,-1 6,-3 6,-4 8,-4 8,-3 0,1 0,2 -1,2 -2,1 0,8 3,10 3,3 3,3 0,8 -2,5 -2,8 1,6 1,-1 1,-2 1,-3 0,-1 1,-3 1,-4 1,-1 2,-6 3,-9 1,-4 2,-7 2,-7 0,0 1,6 1,14 0,8 1,15 2,16 1,1 1,2 -1,3 -1,1 -2,1 -3,-1 -2,-2 -3,-1 -4,2 0,2 0,2 4,3 3,0 5,1 6,2 1,1 2,1 4,-2 3,-4 2,-10 -1,-14 -2,-3 -3,-6 -1,-9 1,-1 1,-3 0,-7 -1,-4 -1,-6 1,-8 2,-3 1,-7 -2,-7 -1,0 -3,1 -5,2 -3,1 -4,1 -6,0 l -3,-3 c 0,-2 2,-3 4,-1 1,2 2,2 2,0 1,-2 1,-3 1,-4 0,0 1,-1 2,-1 3,0 5,-3 3,-4 -1,-1 -1,-2 0,-2 1,-1 4,3 4,6 0,2 1,2 4,0 2,-3 6,-3 8,0 2,3 4,2 4,-1 0,-4 2,-4 4,-2 1,1 2,2 3,2 1,0 5,-6 5,-7 0,0 -3,-1 -6,-1 -4,0 -7,-1 -9,-1 -1,-1 -4,-1 -7,-1 -4,0 -4,0 -6,-3 -1,-3 -1,-3 1,-3 2,0 3,1 4,2 1,2 2,2 13,2 h 12 c 0,0 0,-1 -1,-2 -1,-1 -2,-2 -2,-3 1,-1 5,-1 8,0 1,1 3,1 7,-1 3,-1 10,-2 17,-2 10,-1 12,-1 14,1 1,1 2,1 2,0 1,-2 -2,-5 -4,-4 -2,1 -5,-2 -3,-3 16,-5 24,-6 40,-6 21,0 20,0 21,-4 1,-5 -1,-9 -5,-9 -1,0 -3,0 -4,-1 -2,-1 -1,-3 2,-3 1,0 2,-1 2,-2 0,-1 1,-2 2,-2 1,0 2,-2 3,-4 1,-4 2,-5 4,-3 2,1 2,1 4,0 2,-1 2,-1 5,1 2,1 4,2 7,2 2,0 5,0 5,1 1,1 2,1 3,0 1,-1 4,-1 7,-1 4,0 5,1 4,2 -1,3 -1,8 0,9 1,1 1,1 2,0 2,-3 4,-2 4,2 0,2 2,3 3,1 1,-1 2,-2 4,-2 2,0 3,-1 3,-3 0,-3 3,-4 4,-2 1,1 1,2 -1,3 -3,3 -3,8 0,8 1,0 3,-1 5,-2 2,-1 3,-1 5,0 2,1 2,1 4,-1 2,-2 3,-2 7,-2 4,1 6,0 4,-2 -2,-1 -1,-3 3,-5 3,-1 5,-1 6,-1 3,1 3,1 4,-1 2,-4 12,-4 15,-1 0,1 1,1 2,0 1,-1 5,-1 10,-1 8,0 8,0 10,-2 2,-2 2,-2 5,-1 2,1 3,2 4,3 1,1 4,3 8,4 l 7,2 -4,1 c -2,0 -7,1 -11,1 -4,0 -10,1 -13,2 -3,1 -8,2 -12,2 -4,0 -8,1 -11,2 -7,3 -29,6 -48,7 -10,0 -18,1 -18,2 -1,1 -3,1 -6,1 -2,0 -7,1 -11,1 -4,1 -9,1 -13,1 -14,1 -26,3 -29,5 -1,1 -2,1 -3,1 -1,0 -2,1 -2,3 -1,2 -2,3 -5,3 -4,1 -6,2 -8,8 -2,7 -2,9 1,12 3,2 3,3 3,9 v 6 l -2,-2 c -1,-1 -4,-3 -7,-4 -6,-4 -10,-7 -9,-8 l 4,1 c 2,1 4,2 4,2 1,-1 -1,-4 -2,-4 -2,0 -1,-4 1,-5 3,-1 2,-3 -2,-4 -2,0 -3,-1 -4,-2 0,-2 0,-2 3,-3 3,-1 5,-2 5,-5 0,-1 -1,0 -3,1 -1,1 -3,2 -4,1 -3,0 -4,1 -4,4 0,3 0,3 -5,3 -4,0 -6,0 -9,2 -2,1 -4,2 -5,2 -3,0 -3,3 0,4 2,1 3,1 5,0 2,-1 3,-1 4,0 2,2 -2,5 -6,6 h -4 c 0,0 -1,1 -1,3 0,3 0,3 -3,2 -2,-1 -3,0 -3,1 0,4 14,9 28,11 6,1 19,5 21,7 1,1 1,1 0,2 -1,1 -3,0 -6,-1 -5,-2 -25,-6 -35,-8 -2,0 -6,-1 -7,-2 -3,-2 -5,-1 -5,1 0,1 1,1 4,1 3,0 5,1 9,5 5,5 6,5 11,6 h 8 c 2,-1 6,0 15,5 4,3 5,3 5,6 0,5 2,11 4,14 2,3 2,3 0,3 -2,0 -2,0 -2,7 0,4 0,7 -1,7 0,0 -2,-2 -3,-4 -2,-4 -9,-11 -9,-9 0,3 9,16 11,16 2,0 4,6 4,10 0,2 1,6 2,11 3,9 6,30 7,41 1,12 -1,25 -8,48 -5,17 -13,36 -17,43 -1,1 -2,7 -3,13 -4,29 -6,38 -7,41 -1,1 -3,8 -5,14 -3,15 -4,16 -5,16 l -1,-1 c 0,-1 -1,-1 -1,0 0,1 -2,3 -3,4 -5,5 -12,18 -15,27 -4,13 -5,13 -4,5 v -9 c -2,-2 -6,3 -11,14 -3,6 -5,11 -6,12 -4,6 -11,17 -14,20 -2,2 -5,7 -7,12 -3,7 -16,32 -27,53 -3,5 -6,11 -7,13 -1,2 -3,4 -3,5 0,1 -2,3 -3,5 -8,13 -10,17 -14,21 -2,2 -7,9 -10,15 -4,6 -9,13 -11,17 -2,4 -10,14 -16,24 -6,10 -15,21 -18,26 -4,5 -9,12 -12,16 -3,4 -7,10 -10,13 -2,3 -6,9 -9,12 -2,4 -7,9 -11,12 -3,3 -7,6 -8,8 -1,2 -3,5 -4,6 l -3,4 3,-6 c 1,-3 3,-6 3,-7 0,-2 -3,2 -6,8 -2,4 -4,8 -5,9 -1,1 -2,3 -2,4 0,1 -2,3 -4,6 -2,2 -5,6 -6,8 -2,4 -8,10 -10,10 -2,0 -2,0 2,5 3,5 3,9 0,4 -1,-1 -3,-3 -4,-3 -2,0 -2,-1 -2,-3 0,-2 0,-2 -1,-2 -1,0 -1,1 -1,1 1,2 -5,7 -8,7 -1,0 -3,1 -5,3 -3,3 -5,3 -5,1 0,-2 4,-9 5,-9 1,0 2,-1 3,-2 1,-1 0,-1 -6,-1 -7,1 -8,0 -6,-2 1,-1 1,-2 0,-2 -1,-1 -7,4 -7,7 0,1 1,3 1,4 1,1 1,1 0,2 -3,2 -7,13 -7,18 0,2 0,4 -2,5 -1,1 -2,2 -2,3 0,1 -2,3 -4,5 -3,3 -5,4 -6,3 -2,0 -2,0 -3,3 -1,3 -3,4 -6,2 -2,-1 -2,-2 -1,-3 2,-2 0,-4 -5,-4 -3,0 -6,-1 -8,-2 -2,-1 -5,-2 -9,-2 -7,0 -8,-1 -8,-4 1,-3 -2,-6 -4,-3 -2,2 -4,2 -6,0 -1,-1 -1,-2 1,-3 1,-1 3,-1 4,-1 1,0 1,-1 1,-2 0,-2 -1,-2 -10,-1 -3,0 -3,0 -3,-2 0,-1 0,-3 1,-5 0,-4 2,-3 5,0 2,2 4,3 6,4 2,1 5,4 7,7 2,3 4,5 5,5 1,0 2,-2 8,-13 4,-8 5,-10 4,-11 -1,-1 -2,-1 -3,0 -3,2 -3,2 -3,-1 0,-4 -11,-12 -19,-14 -2,-1 -3,0 -6,3 -3,3 -6,5 -6,3 0,-1 4,-5 6,-5 2,0 2,-2 1,-4 -2,-2 -4,-3 -4,-1 0,0 -2,4 -5,7 -3,4 -5,7 -5,8 0,1 -3,3 -7,5 -7,4 -7,4 -10,2 -1,-1 -3,-3 -3,-4 0,-2 5,-6 9,-6 3,0 4,-1 3,-5 -1,-3 0,-4 5,-8 5,-3 7,-6 4,-6 -1,0 -2,-1 -3,-2 -1,-2 -2,-2 -5,-1 -5,2 -6,2 -4,-1 1,-3 0,-6 -3,-6 -1,0 -3,-1 -5,-3 -2,-2 -7,-4 -10,-5 -4,-1 -7,-2 -8,-3 -2,-1 -2,-1 -3,0 -2,2 -6,3 -8,2 -2,-1 -3,-1 -6,0 -2,1 -4,1 -4,2 0,2 5,8 12,12 20,13 24,16 29,17 3,1 6,2 6,3 0,1 -2,1 -5,2 -4,0 -6,0 -10,-2 -5,-2 -6,-3 -6,-5 0,-3 -2,-4 -5,-2 -2,1 -2,1 -6,-2 -5,-4 -14,-11 -15,-11 -1,0 -2,-1 -2,-3 -1,-2 -2,-3 -4,-3 -1,0 -4,-1 -6,-2 -6,-4 -10,-5 -18,-4 -7,1 -7,1 -9,-2 -2,-3 -2,-4 -1,-6 1,-2 1,-2 -2,-4 -3,-3 -9,-3 -11,-1 -1,1 -2,1 -3,1 h -2 c -1,1 1,2 6,6 8,6 15,12 19,15 2,2 6,6 9,7 2,1 6,5 9,7 3,2 6,5 8,5 6,3 11,8 11,11 0,1 1,3 1,4 2,3 -2,-1 -9,-6 -13,-11 -51,-38 -55,-39 -1,0 -2,-1 -2,-2 0,-1 -2,-1 -3,-1 -1,0 -3,-1 -5,-2 -3,-3 -9,-4 -15,-2 -5,2 -7,1 -3,-1 3,-2 3,-3 0,-3 -1,0 -2,0 -2,1 0,1 -2,1 -4,0 -3,0 -5,0 -5,1 -2,1 -9,1 -9,-1 0,-1 0,-1 2,-1 3,0 4,-2 2,-3 -1,-1 -2,-1 -4,1 -3,2 -14,4 -14,2 0,0 2,-2 5,-4 3,-2 5,-4 4,-4 -1,-1 -4,-1 -5,0 -1,2 -2,1 -4,-2 -2,-4 -3,-6 -1,-6 2,0 2,-2 0,-3 -1,0 -2,0 -3,1 -1,2 -2,2 -3,1 -3,-2 -6,-2 -7,0 -1,1 -2,1 -4,1 -2,0 -3,-1 -2,-2 1,-2 -1,-5 -3,-5 -1,0 -1,1 -1,4 0,4 -2,5 -4,2 -2,-3 -3,-2 -4,1 -1,3 -4,7 -5,7 0,0 -1,-1 -1,-2 0,-1 -1,-3 -3,-5 -3,-3 -6,-3 -6,0 0,2 -5,6 -7,5 -1,-1 -1,-1 0,-4 2,-4 1,-5 -3,-2 -3,3 -9,4 -8,2 2,-5 2,-6 0,-6 -1,0 -3,1 -4,3 -2,2 -2,3 -11,3 h -10 v -3 c 0,-2 -1,-3 -2,-3 -1,0 -2,-1 -2,-2 0,-2 -1,-2 -7,-3 -6,0 -7,-1 -7,-2 0,-2 -1,-2 -5,-1 -3,0 -5,1 -6,1 -1,0 -4,1 -8,2 -4,1 -7,2 -9,4 -3,2 -22,15 -32,20 -3,2 -12,7 -21,12 -9,5 -17,10 -20,11 -2,1 -6,4 -9,6 -16,12 -33,24 -34,24 -1,0 -1,1 -2,1 -1,1 -4,3 -19,11 -3,2 -7,4 -9,5 -7,4 -11,7 -31,16 -11,5 -20,10 -20,9 -1,-1 9,-9 14,-11 3,-1 6,-3 8,-4 2,-1 5,-3 7,-4 5,-3 6,-5 5,-7 -1,-2 -1,-3 5,-7 2,-2 7,-5 10,-7 5,-4 7,-5 11,-5 3,0 5,0 5,-1 0,0 2,-1 3,-1 2,0 10,-7 10,-9 0,-1 1,-2 2,-2 1,0 3,-2 5,-3 6,-5 9,-7 15,-9 6,-2 12,-6 12,-8 0,-3 -24,4 -32,9 -2,1 -5,3 -7,3 -1,0 -7,3 -12,5 -5,2 -12,5 -16,7 -8,3 -21,8 -25,10 -2,1 -8,3 -13,6 -27,11 -46,23 -60,34 -1,1 -4,3 -6,5 -2,2 -5,4 -5,5 -1,1 -3,2 -5,4 -2,2 -8,6 -14,10 -5,4 -12,9 -15,11 -3,2 -7,5 -9,7 -2,2 -7,6 -9,8 -2,2 -9,7 -14,12 -5,4 -14,11 -19,16 -6,4 -17,13 -25,19 -8,6 -16,12 -18,13 -2,1 -6,4 -9,7 -14,11 -16,13 -24,17 -4,3 -9,5 -10,6 -1,1 -4,3 -7,4 -2,1 -7,4 -9,6 -3,2 -6,3 -7,3 -2,0 -8,3 -14,7 -2,2 -5,3 -6,3 h -5 l -8,-7 z m 17,-75 c 3,-3 3,-4 0,-3 -2,1 -6,6 -4,6 1,0 2,-1 4,-3 z m 28,-33 c 3,-3 5,-5 5,-6 -1,0 -11,9 -11,10 0,2 1,1 7,-5 l -1,1 z m 819,-62 c 3,-2 5,-4 5,-5 2,-4 1,-5 -9,-12 -9,-6 -12,-7 -12,-4 0,1 -2,4 -5,8 -7,10 -7,10 6,15 6,2 10,1 16,-2 h -1 z m -541,-13 c 2,-2 1,-3 -2,-3 -3,0 -5,4 -2,4 1,0 2,-1 3,-1 h 1 z m 588,-27 c 0,-3 2,-7 8,-12 5,-5 6,-8 4,-8 -1,0 -3,1 -4,2 -3,2 -5,3 -5,1 0,-1 10,-12 12,-13 5,-2 10,-9 8,-11 -1,-1 -2,-1 -4,1 -4,2 -5,2 -5,-1 0,-1 0,-3 -1,-3 -2,0 -4,4 -4,6 0,2 -1,3 -2,3 h -3 c -1,-1 1,-8 6,-15 2,-3 4,-7 4,-8 0,-4 -3,-3 -6,1 -2,2 -5,6 -8,9 -3,3 -5,6 -5,7 0,1 -2,4 -5,6 -3,2 -6,6 -6,7 -1,1 -2,2 -3,1 -1,-1 -1,-1 0,-3 1,-1 2,-3 3,-4 2,-1 5,-7 5,-9 0,-1 -1,0 -3,1 -6,4 -11,10 -13,14 -1,2 -2,5 -4,7 -3,4 -3,8 -1,10 1,1 5,3 10,4 5,1 10,4 14,6 7,4 9,4 9,1 h -1 z m -26,-20 c 0,-1 0,-1 1,-1 h 1 c 0,0 0,1 -1,1 h -1 z m -821,19 c 0,-1 0,-1 -2,-1 -1,0 -3,0 -3,1 0,1 1,1 2,1 1,0 2,0 3,-1 z m 798,-5 c 0,-1 -2,-1 -3,0 0,1 0,1 1,1 1,0 1,-1 1,-1 h 1 z m 11,-3 c 0,-1 0,-2 -1,-2 -1,0 -5,5 -4,6 1,1 5,-2 5,-4 z m -16,-21 c 3,-13 2,-13 -5,-7 -3,2 -5,4 -6,4 -1,0 -2,1 -2,3 0,2 8,8 10,8 1,0 2,-3 3,-8 z m -42,-20 c 4,-2 4,-6 0,-7 -2,0 -13,4 -13,5 0,1 5,4 8,4 1,0 3,-1 5,-2 z m 159,-17 c 1,-2 0,-3 -2,-1 -1,1 -1,2 0,2 1,0 1,-1 2,-2 v 1 z M 668,932 c 4,-1 9,-2 12,-3 3,-1 7,-1 9,-2 2,-1 5,-2 6,-3 1,-1 3,-3 4,-3 1,0 4,-1 6,-2 2,-1 5,-2 6,-2 1,0 4,-1 5,-2 2,-1 5,-2 8,-2 3,0 5,-1 6,-2 1,-1 4,-2 7,-3 26,-8 63,-21 81,-29 4,-2 9,-4 10,-4 1,0 3,-1 4,-1 1,-1 15,-8 31,-15 3,-1 7,-4 8,-5 l 3,-3 h -4 c -2,0 -5,1 -5,1 -1,1 -6,3 -12,6 -6,2 -14,6 -19,8 -22,11 -61,25 -101,37 -7,2 -15,5 -18,6 -6,2 -22,6 -25,6 -1,0 -1,-1 -1,-2 0,-1 -1,-2 -2,-2 -1,0 -3,1 -4,2 -1,1 -2,2 -3,2 -7,1 -14,2 -16,3 -1,1 -4,1 -6,1 -2,0 -6,1 -8,2 -3,2 -4,2 -4,4 1,5 9,6 22,3 v 4 z m -48,-19 c 8,-4 19,-10 25,-13 6,-3 18,-11 28,-17 16,-10 21,-12 34,-20 3,-2 9,-5 15,-8 5,-3 11,-6 14,-7 2,-1 9,-5 15,-9 6,-4 16,-10 23,-14 16,-8 31,-19 29,-21 -1,-1 -26,9 -36,16 -12,8 -40,23 -45,24 -2,1 -5,2 -6,3 -1,1 -6,4 -10,5 -4,1 -11,6 -17,10 -6,4 -17,10 -27,15 -16,8 -37,21 -48,28 -5,3 -14,13 -14,15 0,2 6,0 19,-6 l 1,-1 z m 178,-81 c 3,-1 5,-3 4,-3 -1,0 -9,3 -10,5 -1,2 0,1 6,-2 z m 229,-64 c 1,-1 2,-2 2,-3 0,-3 5,-11 7,-11 1,0 2,0 2,-1 0,-2 -9,-1 -10,1 -2,2 -4,8 -5,13 -1,3 1,3 5,1 h -1 z m 25,-22 c 2,-2 5,-2 8,-2 6,0 19,-6 29,-13 2,-1 4,-2 4,-2 0,0 1,-1 2,-2 1,-2 1,-2 -1,-1 -2,1 -2,0 -2,-1 0,-1 1,-2 2,-2 1,0 2,0 3,-3 2,-4 2,-5 0,-7 -2,-2 -4,-2 -4,0 0,1 -1,2 -2,2 -1,0 -2,1 -3,2 0,1 -2,2 -4,2 -2,1 -3,2 -3,3 0,1 -1,2 -3,2 h -4 c -1,0 -2,1 -2,1 0,1 -1,1 -2,1 -3,0 -12,5 -17,9 -2,2 -4,3 -6,4 -2,1 -8,8 -7,9 1,1 8,0 11,-2 h 1 z m 42,-31 v -2 c 1,-1 2,0 2,1 0,1 -1,1 -2,0 v 1 z m -55,26 c 1,-1 3,-3 4,-3 1,0 1,-1 1,-2 0,-4 8,-11 13,-13 1,0 3,-2 4,-3 2,-3 1,-3 -1,-5 -3,-3 -4,-3 -5,1 -1,4 -3,4 -4,1 -3,-7 9,-12 16,-6 1,1 2,1 2,0 0,-1 0,-1 -1,-2 -2,-1 -1,-4 1,-6 2,-2 2,-2 -1,0 -3,2 -3,2 -5,0 -2,-2 -2,-2 0,-4 1,-1 2,-1 3,-1 1,1 10,-2 11,-3 1,0 2,-1 3,-1 1,0 2,0 2,-1 0,-1 -4,-3 -6,-3 -6,1 -6,-2 0,-8 4,-4 9,-8 11,-8 l 1,1 c 0,1 -1,2 -2,2 -2,1 -7,6 -7,8 0,0 2,1 5,1 4,1 6,0 9,-1 2,-1 8,-4 14,-7 11,-6 20,-11 28,-16 3,-2 6,-3 7,-3 2,0 4,-2 8,-5 3,-3 7,-6 9,-7 6,-3 17,-10 25,-16 2,-2 7,-4 11,-6 4,-2 9,-5 12,-8 3,-2 6,-4 6,-4 0,0 3,-2 6,-4 3,-2 5,-4 6,-4 2,0 8,-8 7,-9 -2,-2 1,-4 6,-3 5,1 6,0 6,-2 -1,-3 -10,-4 -12,-2 -2,4 -19,10 -28,11 -5,0 -8,2 -6,4 1,2 -2,3 -6,3 -3,-1 -4,-1 -3,2 1,2 0,2 -2,2 -2,0 -3,1 -4,2 -1,2 -2,2 -5,1 -1,0 -4,2 -7,5 -4,4 -6,6 -6,7 0,2 0,2 -2,2 h -4 c -1,0 -3,1 -4,2 -1,0 -3,2 -4,4 -1,2 -3,3 -4,3 -3,0 -7,3 -11,7 -2,3 -4,4 -7,4 -4,0 -4,-1 -2,-4 1,-1 1,-1 1,-2 -1,-1 -8,4 -10,6 -2,2 -2,2 0,3 1,1 1,1 0,2 h -2 c -2,-2 -5,1 -4,2 1,2 0,3 -2,3 -2,0 -5,2 -9,4 -2,2 -2,2 -4,0 -2,-2 -2,-2 1,-4 l 3,-2 -3,-2 -3,-2 3,-2 c 3,-1 3,-1 5,0 4,3 6,0 2,-4 -2,-2 -1,-2 2,-5 6,-6 1,-7 -9,-2 -4,2 -7,4 -7,4 0,0 -2,1 -4,2 -3,2 -3,2 -4,0 -1,-2 -2,-2 -5,1 -5,3 -6,5 -3,5 h 3 l -2,4 c -3,5 -3,7 0,8 3,1 2,2 -2,3 -3,1 -3,1 -3,5 1,5 0,5 -3,3 -2,-1 -5,0 -5,1 0,1 -5,8 -8,12 -1,1 -2,4 -3,5 0,2 -2,7 -7,18 -1,2 -3,8 -4,13 -1,5 -3,10 -4,12 -1,2 -1,5 -1,6 1,2 4,2 7,-1 l -4,1 z m 16,-35 c -1,-2 0,-3 3,-3 2,0 2,0 2,2 0,2 -4,3 -5,1 z m 34,-34 c -1,-2 1,-4 3,-4 2,0 2,2 0,4 -2,2 -2,2 -3,0 z m 29,-20 c 0,-1 1,-1 2,-1 1,0 1,0 1,1 0,1 -1,1 -2,1 -1,0 -1,0 -1,-1 z m -25,-2 c -1,-2 0,-3 4,-4 4,-1 6,1 3,2 -1,1 -3,1 -3,2 -1,2 -2,1 -3,-1 l -1,1 z m -101,84 c 0,-1 1,-2 3,-2 1,0 4,-3 6,-5 2,-3 6,-6 9,-7 4,-2 5,-3 5,-4 0,-1 0,-1 1,-1 2,1 10,-4 10,-6 0,-1 1,-1 3,-2 1,0 3,-1 3,-2 1,-1 3,-3 5,-4 2,-1 5,-3 6,-5 2,-3 2,-5 0,-3 -1,1 -3,1 -4,1 -2,0 -3,0 -5,2 -1,2 -6,5 -10,7 -4,2 -9,5 -11,6 -2,1 -5,3 -7,3 -8,2 -10,5 -15,13 -5,9 -5,11 -2,10 1,-1 2,-2 3,-2 v 1 z m 77,-17 h -1 c -1,0 -1,0 -1,1 0,1 0,1 1,0 1,-1 1,-1 1,-1 z m -21,-48 c -1,-1 -3,1 -2,2 0,1 1,1 2,0 1,-1 1,-1 0,-2 z m 55,-11 c 0,-1 0,-1 -1,-1 -1,0 -1,0 -1,1 0,1 0,1 1,1 1,0 1,0 1,-1 z m 92,-9 c 0,-2 -2,-3 -3,0 0,2 0,2 1,2 1,0 2,-1 2,-2 z m 10,-2 c 0,-1 0,-1 -1,-1 -1,0 -1,0 -1,1 0,1 0,1 1,1 1,0 1,0 1,-1 z m -75,-6 c 1,-1 1,-2 1,-2 0,0 -1,1 -2,2 -1,1 -1,2 -1,2 0,0 2,-1 2,-2 z m 7,-6 c 0,-1 -5,2 -5,3 l 2,-1 c 1,-1 3,-2 3,-3 v 1 z m 20,-14 c 3,-1 6,-4 7,-5 1,-1 3,-3 3,-3 1,0 4,-2 7,-5 3,-3 8,-6 9,-7 3,-1 6,-6 5,-6 -2,0 -11,5 -14,9 -2,2 -7,6 -10,8 -3,2 -7,5 -8,6 -1,1 -4,3 -6,5 -2,1 -5,4 -7,5 -2,2 -1,2 3,-1 3,-2 8,-5 10,-7 l 1,1 z m -49,7 c 1,0 4,-3 6,-6 2,-3 6,-7 8,-9 12,-13 1,-6 -14,10 -7,7 -7,8 0,5 z m 116,1 c 1,-1 1,-2 -1,-4 -3,-4 -4,-4 -4,0 0,4 3,7 6,4 h -1 z m -134,-14 c 3,-2 6,-6 7,-8 l 3,-4 -2,-2 -2,-2 c 0,0 -1,3 -3,5 -2,2 -4,6 -6,7 -2,1 -3,3 -3,4 0,3 1,2 6,-2 v 2 z m 56,-15 c 3,-2 7,-7 7,-9 0,-2 -12,2 -16,5 l -2,2 h 2 c 2,0 2,1 2,2 0,1 0,2 -1,3 -1,0 -1,1 -1,2 0,1 0,1 3,0 2,-1 4,-3 6,-4 v -1 z m 67,-8 c 5,-2 10,-5 12,-5 1,0 3,-1 5,-3 l 4,-3 h -3 c -2,0 -4,-1 -5,-2 -1,-1 -3,-1 -7,-1 -4,1 -6,1 -10,0 -5,-2 -7,-1 -7,1 0,1 -1,2 -3,4 -4,4 -6,2 -3,-3 3,-6 0,-9 -6,-6 -4,2 -8,7 -7,11 0,3 0,3 4,3 3,0 4,0 5,2 0,1 2,2 3,3 3,2 15,1 19,-1 h -1 z m 7,-21 c 1,-1 4,-2 5,-3 2,-1 3,-2 3,-2 0,-2 -1,-4 -3,-4 -3,0 -16,7 -16,9 -1,3 9,3 12,0 h -1 z m -57,-3 c 2,-1 3,-5 1,-5 0,0 -2,1 -3,2 -1,1 -3,2 -4,3 -2,1 -2,1 1,1 2,0 4,0 5,-1 z m 67,-21 c 2,-3 1,-3 -2,-2 -4,2 -5,3 -5,4 1,1 5,0 6,-2 h 1 z m -63,-4 c 2,-2 4,-3 5,-3 1,0 2,-1 3,-3 1,-1 3,-3 4,-3 1,0 3,-2 4,-3 1,-2 1,-2 -1,-1 -6,2 -9,3 -12,3 -2,0 -4,0 -5,1 -1,1 -3,12 -2,12 0,0 2,-1 4,-3 z m 161,-12 c -1,-1 -3,1 -3,2 0,1 1,1 2,0 1,-1 1,-1 1,-2 z m -112,-2 c 2,-3 3,-3 2,-7 -1,-4 -2,-5 -9,-7 -2,-1 -3,0 -4,2 -1,2 -3,3 -4,4 -2,1 -5,8 -4,9 h 5 c 3,0 5,0 5,1 1,1 5,0 8,-2 h 1 z m -13,-2 c 0,-1 1,-2 2,-2 1,0 2,0 1,1 0,1 -1,2 -2,2 -1,0 -2,0 -1,-1 z m 201,-75 c 2,-3 1,-3 -2,-2 -1,1 -3,1 -3,1 -3,1 -2,3 1,3 2,0 3,-1 5,-3 l -1,1 z m -4,-9 c 1,-2 2,-5 2,-6 0,-1 0,-1 -2,-1 -2,0 -2,1 -2,4 0,2 -1,5 -1,6 v 2 c 0,0 2,-2 3,-4 v -1 z m -37,2 h -1 c -1,0 -1,0 -1,1 0,1 0,1 1,0 1,-1 1,-1 1,-1 z m 15,-2 c 3,-3 0,-6 -4,-5 -3,0 -4,1 -4,4 0,3 0,3 3,3 2,0 4,-1 5,-2 z m -31,-5 c 0,-3 0,-5 -1,-5 -1,0 -2,1 -2,1 -1,2 -3,2 -3,1 0,-1 0,-1 1,-1 1,0 1,-1 0,-2 -1,-3 -3,-3 -4,0 -1,2 0,5 2,6 1,0 1,1 1,2 0,1 3,3 5,3 0,0 1,-2 1,-5 z m 218,2 c -1,-2 -1,-3 -1,-4 1,-1 0,-2 -2,-5 -4,-4 -4,-6 -1,-7 5,-2 6,-1 9,4 6,9 8,12 10,13 l 1,1 c 0,0 0,-2 1,-3 1,-2 1,-3 -1,-5 l -4,-4 -8,-8 c -7,-7 -16,-15 -26,-21 -10,-6 -24,-17 -24,-19 0,-1 1,-2 2,-2 3,-2 3,-3 -3,-8 -5,-4 -5,-4 -6,-3 -1,1 -2,2 -4,2 -2,0 -4,1 -5,1 -2,1 -2,1 -7,-1 -3,-2 -5,-2 -6,-2 l 1,1 c 2,1 2,5 0,6 -3,2 -2,8 2,17 2,4 5,10 6,12 2,2 3,5 4,8 1,3 3,5 5,7 2,2 3,4 3,5 v 3 c 1,2 1,2 5,1 3,0 5,0 7,1 3,2 4,1 1,-2 -1,-1 -2,-3 -2,-5 0,-2 -1,-5 -7,-10 -4,-4 -8,-9 -9,-12 -1,-3 -3,-6 -4,-7 -2,-2 -4,-10 -4,-10 1,-1 2,-1 2,1 0,2 6,8 7,8 1,0 1,1 1,2 0,5 4,10 8,10 1,0 4,3 7,7 4,5 6,7 9,8 2,0 4,1 4,2 1,3 9,15 10,15 0,0 1,-1 1,-2 0,-1 1,-1 2,-1 2,1 1,-2 -3,-5 -4,-4 -2,-5 3,-1 2,1 4,3 5,3 2,0 2,4 0,6 -1,1 -1,1 -3,0 -2,-1 -2,-1 -3,0 -1,2 1,3 8,4 3,0 5,1 6,2 2,2 2,1 0,-2 l 3,-1 z m -11,-24 c -3,-2 -8,-7 -7,-8 0,0 2,1 4,2 2,1 5,3 6,3 1,0 2,1 2,3 0,2 -1,2 -5,0 z m -58,-39 c -2,-3 -2,-5 0,-5 2,0 3,2 2,5 v 2 l -2,-2 z m 15,0 v -2 c 1,-1 4,0 4,2 0,1 -3,1 -4,0 z m -121,63 c 2,-1 2,-2 1,-3 -1,-1 -1,-1 -3,0 -2,2 -3,5 -1,5 0,0 2,-1 3,-2 z m -27,-3 c 0,-1 -1,-1 -3,0 -2,2 -1,3 1,2 1,-1 2,-2 2,-2 z m -9,0 c 0,-1 0,-1 -2,0 -2,1 -2,2 0,2 1,0 2,-1 2,-1 v -1 z m -24,-4 c 2,-2 5,-6 4,-7 l -3,1 c -4,3 -5,2 -4,-3 1,-5 0,-6 -3,-4 -2,1 -3,1 -5,0 -6,-3 -11,1 -9,8 1,4 4,4 7,0 3,-3 5,-4 6,-2 v 3 c -1,2 -1,2 1,4 2,2 4,2 7,1 l -1,-1 z m 124,-9 c 2,-1 2,-1 0,-2 -1,0 -2,-1 -1,-4 1,-3 0,-4 -3,-1 -1,1 -1,3 -1,6 1,6 2,8 2,5 0,-1 1,-3 2,-4 h 1 z m -10,-2 c 0,-2 0,-3 -1,-3 -1,-1 -3,6 -3,8 1,2 1,2 2,0 1,-1 1,-3 1,-5 h 1 z m 60,2 c 1,-4 0,-5 -3,-5 -2,0 -3,0 -3,-2 -1,-1 -1,-3 -2,-3 -2,-2 0,5 3,8 2,2 3,3 3,4 0,2 2,1 2,-2 z m -25,-1 c 0,-1 1,-2 3,-3 2,-1 3,-3 2,-4 -1,-1 -8,6 -8,7 1,2 4,1 4,-1 l -1,1 z m -198,-3 v -2 c -1,-1 -4,2 -4,3 0,2 3,1 4,-1 z m 136,-8 c 2,-3 2,-9 0,-9 -1,0 -2,1 -3,7 -1,5 0,6 3,2 z m 19,1 c 0,-1 1,-3 3,-4 3,-4 3,-7 0,-6 -1,0 -3,1 -3,1 0,0 -1,1 -1,2 0,1 -1,3 -2,4 -2,2 -2,5 1,5 1,0 2,-1 2,-1 v -1 z m 152,-2 c -1,-2 -3,-2 -3,0 0,2 2,4 3,3 v -3 z m -313,-4 c -1,-1 -2,-1 -2,1 0,1 1,1 1,1 1,0 1,-1 1,-1 v -1 z m -10,-1 c 3,-1 3,-5 1,-6 -2,-1 -5,2 -5,5 0,2 1,2 5,1 h -1 z m 141,-2 c 2,-6 -2,-7 -4,-2 -2,4 -2,5 1,5 2,0 3,-1 4,-3 h -1 z m 18,-2 c 2,-1 2,-3 0,-3 h -2 c 0,0 0,1 -1,2 -1,2 0,2 2,1 h 1 z m 162,-3 c 0,-2 -2,-4 -3,-3 v 3 c 1,3 3,3 3,0 z m -168,-3 c -1,-1 -5,-1 -6,0 -1,2 1,3 4,2 2,-1 3,-1 2,-2 z m -21,-6 c 1,-1 2,-2 2,-2 4,0 13,-17 10,-19 -2,-1 -3,-1 -4,1 -1,2 -2,2 -4,1 -4,-2 -5,-1 -7,2 -1,2 -2,3 -4,3 -2,0 -3,1 -3,3 -1,5 6,4 7,-1 0,-1 1,-2 2,-2 1,0 1,1 0,2 0,2 0,3 1,3 1,1 1,1 0,2 -1,1 -2,2 -2,3 0,1 -1,3 -1,3 -1,1 -1,1 0,1 1,0 2,-1 3,-2 v 2 z m 6,-10 c -1,-1 0,-2 1,-2 1,0 1,1 1,2 0,2 -1,2 -2,1 v -1 z m 13,3 c 4,-3 7,-6 7,-7 0,-1 -2,-1 -3,-1 -3,0 -4,1 -6,3 -1,2 -4,4 -5,6 -3,4 -3,4 -1,4 1,0 5,-3 9,-6 l -1,1 z m 112,-18 c 1,0 2,-2 3,-4 2,-3 2,-3 0,-6 -2,-3 -5,-4 -5,-1 0,1 -1,2 -3,3 -3,2 -4,6 -2,7 2,1 4,2 6,1 h 1 z m 0,-6 c -1,-2 -1,-2 1,-2 1,0 2,1 2,2 0,2 -2,3 -2,0 h -1 z m -132,3 c 2,-3 1,-4 -1,-4 -2,0 -6,3 -6,5 0,2 6,1 7,-1 z m 110,1 c 0,-1 0,-2 -1,-2 -1,0 -1,1 -1,2 0,1 0,2 1,2 1,0 1,-1 1,-2 z m -9,-1 v -2 c -1,-1 -4,1 -3,3 1,2 2,2 3,0 v -1 z m 48,-5 c 0,-1 0,-1 -2,-1 -2,0 -2,-1 -2,-3 0,-3 -1,-4 -4,-2 -2,1 -2,4 1,4 1,0 1,1 1,2 0,1 0,2 1,2 1,1 4,0 5,-1 v -1 z m 42,-24 c 1,-1 1,-2 0,-3 -2,-2 -4,0 -3,2 1,2 2,2 4,0 l -1,1 z m -11,-4 c 1,-1 2,-2 3,-2 1,0 1,0 1,-1 0,-2 -2,-1 -3,1 -1,1 -2,1 -6,1 -3,0 -4,0 -4,1 0,2 1,3 5,3 2,0 4,-1 4,-2 v -1 z m 18,0 c 2,-2 1,-3 -1,-2 -2,1 -3,3 -2,3 0,0 2,-1 3,-1 z m -230,-4 c 0,-1 0,-1 -1,-1 -1,0 -2,1 -2,2 0,1 0,1 1,1 1,0 2,-1 2,-2 z m 272,-9 c 0,-1 2,-2 3,-2 6,-2 0,-4 -10,-3 -3,0 -7,1 -8,1 -3,1 1,2 4,2 2,0 4,0 5,2 3,3 4,3 5,1 l 1,-1 z m -413,0 c 1,-1 -1,-1 -3,0 -1,1 -1,1 0,1 1,0 2,0 2,-1 h 1 z m 425,0 c 0,-1 -1,-1 -2,-1 -1,0 -2,0 -2,1 0,1 1,1 2,1 1,0 2,0 2,-1 z m -424,-8 c 1,-1 2,-4 1,-4 -1,0 -8,5 -8,6 0,1 6,0 8,-2 h -1 z m 131,-2 c 0,-1 2,-3 3,-4 1,-1 2,-2 2,-4 0,-2 -1,-2 -4,-2 -3,0 -5,-1 -2,-3 2,-1 -2,-3 -5,-2 -1,0 -3,1 -4,1 -3,0 -3,2 0,3 3,1 4,3 1,5 -1,1 -2,2 -2,2 0,1 1,0 2,-1 3,-2 4,-2 6,0 2,1 2,1 0,4 -2,2 -2,3 -1,3 1,0 2,-1 2,-2 h 2 z m -120,-6 c 0,-1 0,-1 -1,-1 -1,0 -1,0 -1,1 0,1 0,1 1,1 1,0 1,0 1,-1 z m 102,-4 c 1,-1 1,-1 1,-1 l -3,1 c -1,1 -1,1 -1,1 l 3,-1 z m -99,-7 c 2,-2 4,-3 5,-3 1,0 2,-1 2,-1 1,-1 1,-2 -1,-3 -2,-2 -2,-2 -3,0 -1,1 -2,2 -3,2 -3,0 -7,4 -7,7 0,3 3,3 7,-1 v -1 z m 103,-3 h -1 c -1,0 -1,0 -1,1 0,1 0,1 1,0 1,-1 1,-1 1,-1 z m 121,-15 c -1,-1 -6,-3 -6,-2 0,0 0,1 1,2 1,2 7,2 5,0 z m -170,-6 c 0,-2 -3,0 -4,1 0,2 0,2 2,1 1,-1 2,-2 2,-2 z m 82,-16 c 0,-1 -1,-2 -4,-4 -3,-1 -4,-1 -11,0 -4,1 -8,1 -9,1 -2,-1 -11,2 -12,4 -1,1 19,0 23,-1 3,-1 7,0 9,2 1,2 4,0 4,-2 z m 93,-2 c 4,0 7,0 7,-1 0,-1 -1,-1 -1,-1 0,0 -2,-1 -3,-2 -1,-1 -2,-1 -3,-1 -1,1 -3,1 -5,0 -3,-1 -3,0 -5,2 -2,2 -2,3 -2,4 1,2 1,2 3,0 2,-1 5,-2 9,-2 v 1 z m -168,-2 c 2,-2 0,-2 -3,1 -2,2 -2,2 0,1 1,0 3,-1 3,-2 z m 39,-3 c 2,-2 2,-2 0,-2 -1,0 -2,0 -2,1 0,1 -2,1 -4,1 -3,0 -5,1 -4,2 1,1 8,-1 10,-2 z m 47,-4 c 1,-3 0,-3 -2,-1 -1,1 -3,2 -3,2 -1,0 -1,0 0,1 2,1 5,0 5,-3 v 1 z m -32,0 3,-1 -4,0 c -5,0 -10,1 -10,2 0,1 8,1 11,-1 z m 141,-3 c 0,-2 -1,-3 -2,-3 -1,0 -2,-1 -2,-3 0,-1 -1,-3 -2,-3 -4,-2 -19,5 -16,8 1,2 8,-1 9,-3 1,-2 5,-3 6,-1 0,1 0,2 -1,3 -2,2 -1,4 1,2 2,-1 2,-1 4,0 2,2 3,2 3,-1 v 1 z m -129,0 c 3,-1 3,-1 1,-2 -2,-1 -5,0 -5,2 0,1 0,1 4,0 z m 33,-1 c 3,0 0,-2 -3,-2 -4,0 -4,0 -3,2 1,1 2,1 3,1 1,0 2,-1 3,-1 z m -63,-4 0,-4 -4,3 c -2,2 -4,4 -4,4 0,0 2,1 4,1 3,0 4,0 4,-4 z m 84,2 c 0,-1 0,-1 -1,-1 -1,0 -2,1 -2,2 0,2 2,1 3,0 v -1 z m -69,-3 3,-2 -6,0 c -6,0 -9,2 -4,3 2,0 3,0 3,1 0,0 2,-1 4,-2 z m 119,0 h -3 c -2,0 -2,0 -1,1 2,1 4,1 4,-1 z m 33,1 c 0,-1 -1,-1 -2,-1 -1,0 -2,0 -3,1 0,1 0,1 2,1 1,0 3,0 3,-1 z m -138,-3 c 0,-1 -1,-1 -2,-1 -2,0 -3,1 -1,2 1,1 3,0 3,-1 z m -38,-4 c 2,-1 2,-2 1,-1 -1,0 -3,1 -4,1 -1,0 -2,1 -2,2 0,2 2,2 6,-1 l -1,-1 z m 122,0 c 0,-2 -1,-2 -3,-1 -2,1 -1,3 1,3 1,0 1,-1 1,-2 h 1 z m -114,-3 c 1,0 1,0 1,-1 0,-1 -1,-1 -4,1 -2,1 -2,2 0,1 1,0 2,-1 3,-1 z m 105,0 c 0,-1 0,-1 -2,-1 -2,0 -2,0 -2,1 0,1 1,1 2,1 1,0 1,0 2,-1 z m 29,908 c -1,-1 -5,-4 -8,-6 -3,-2 -6,-4 -7,-5 l -3,-3 c -2,-2 0,-2 5,1 5,2 16,12 16,15 0,2 -1,2 -4,-1 l 1,-1 z m -251,-2 c -2,-3 -3,-5 -1,-6 1,-1 2,-3 2,-6 0,-7 2,-5 3,3 1,6 1,12 -1,12 l -3,-3 z m 98,-1 c -5,-5 -12,-7 -20,-8 -5,0 -11,-2 -17,-4 l -9,-4 -14,1 c -8,0 -15,1 -17,1 -3,1 -3,1 -4,-3 -1,-2 -1,-5 -1,-6 0,-3 -2,-7 -4,-9 -2,-2 -2,-3 2,-3 3,0 4,0 5,4 2,7 12,11 17,7 3,-3 4,-3 6,0 1,2 1,2 3,0 3,-3 4,-2 4,2 0,4 0,4 4,5 14,4 26,6 28,4 1,-1 2,-1 4,1 1,2 3,3 5,3 2,0 4,1 8,5 l 5,5 c 0,1 -2,0 -5,-2 v 1 z m 124,2 c 0,0 -1,-3 -1,-5 -1,-6 0,-6 8,-5 5,1 5,1 2,2 -4,1 -6,2 -6,6 0,2 0,3 -1,3 -1,0 -2,0 -2,-1 z m -12,-1 c -2,-1 -5,-5 -5,-6 h 2 c 1,0 0,-1 -2,-5 -3,-4 -4,-6 -3,-6 1,0 2,0 3,1 2,2 5,3 7,1 1,-1 1,-1 1,2 0,3 1,9 3,12 0,1 1,2 1,2 0,1 -4,0 -6,-1 h -1 z m -67,-5 c -3,-2 -4,-3 -10,-3 -5,0 -7,1 -9,2 -2,1 -2,1 -4,-1 -3,-4 -3,-5 0,-4 2,1 3,0 4,-1 1,-1 2,-2 3,-2 4,0 15,5 19,8 5,4 3,5 -2,1 h -1 z m 46,1 c -1,-1 -2,-4 -4,-12 0,-2 -1,-3 -2,-3 -1,0 -1,-1 -1,-3 0,-3 -2,-7 -6,-13 -2,-2 -2,-3 0,-4 2,-1 2,-1 3,1 1,2 3,4 4,5 2,1 3,4 5,8 3,8 5,14 6,14 0,0 1,-1 2,-1 2,-1 2,-1 4,1 4,3 3,4 -3,4 -5,0 -6,0 -6,2 0,3 -1,4 -3,2 l 1,-1 z m -200,-10 c 0,-1 0,-1 1,-1 1,0 1,0 1,1 0,1 0,1 -1,1 -1,0 -1,0 -1,-1 z m -98,-1 c -8,-1 -9,-2 -1,-2 7,0 9,-2 11,-7 1,-3 5,-3 6,-1 1,3 5,2 6,-1 1,-3 5,-3 5,0 0,4 2,6 8,6 7,1 12,-1 20,-6 7,-4 8,-6 4,-10 -3,-3 -2,-4 1,-5 2,0 4,-2 5,-3 1,-2 2,-3 4,-3 3,0 3,0 1,5 -1,3 -1,5 1,8 2,5 4,7 8,8 2,0 3,1 4,2 0,1 0,1 -1,1 -1,0 -6,-1 -11,-1 -8,0 -10,0 -14,2 -3,1 -6,3 -7,4 -2,2 -3,2 -9,2 -4,0 -8,-1 -9,-2 -1,-1 -3,-2 -5,-2 -3,0 -7,2 -7,3 0,1 -6,3 -9,3 -2,0 -6,0 -9,-1 h -2 z m 333,-1 c 0,-2 0,-2 2,0 l 2,2 h -2 c -1,0 -2,-1 -2,-2 z m -216,1 c -2,-2 0,-10 2,-10 2,0 3,2 2,6 -1,4 -2,5 -4,4 z m -28,-2 c 0,-2 3,-3 3,-1 1,2 1,2 -1,2 -1,0 -2,-1 -2,-1 z m -99,-1 v -1 l 1,1 v 1 c -1,0 -1,0 -1,-1 z m 260,-2 c -1,-1 -4,-4 -5,-7 -1,-2 -4,-6 -5,-7 -3,-3 -3,-5 -1,-6 1,0 2,1 3,3 1,2 2,4 3,4 1,1 3,2 4,3 1,1 2,2 3,2 1,0 2,1 2,2 1,1 2,2 4,2 3,0 7,2 6,3 0,0 -2,1 -5,1 -2,0 -5,1 -6,1 -1,1 -2,1 -4,-1 h 1 z m -44,0 c -1,-2 2,-7 5,-7 3,-1 4,0 2,3 -2,3 -6,6 -6,4 h -1 z m 30,-3 c -2,-6 -11,-12 -14,-10 -1,1 0,1 2,2 4,1 9,6 9,8 0,2 -2,3 -4,1 -3,-2 -4,-3 -6,-1 -2,2 -4,2 -4,0 0,-1 1,-3 1,-5 1,-3 0,-3 -2,-2 -1,0 -3,1 -4,1 -1,1 -2,0 -2,-1 0,-2 -4,-4 -6,-2 -2,1 -2,1 -3,-1 -1,-2 -1,-5 1,-5 1,0 2,-1 3,-1 2,-2 13,0 21,3 10,5 18,16 12,16 -2,0 -3,-1 -4,-3 z m 90,2 c 0,-1 1,-1 2,0 1,0 2,1 2,1 h -2 c -1,0 -2,0 -2,-1 z m -22,-3 c -1,-1 -1,-4 -1,-5 0,-1 0,-3 -1,-3 -1,-1 -1,-4 0,-4 1,0 2,1 2,3 l 3,3 c 3,0 5,1 5,2 0,0 -1,1 -2,1 -2,0 -3,2 -3,3 -1,3 -2,3 -3,0 z m -20,0 c 0,-1 0,-1 1,-1 1,0 2,0 2,1 0,1 0,1 -1,1 -1,0 -2,0 -2,-1 z m -85,-2 c 0,-1 1,-2 4,-2 4,0 5,1 1,3 -4,1 -6,1 -5,-1 z m 65,0 c 0,-2 3,-5 4,-4 2,1 1,3 -1,4 -2,1 -3,1 -3,-1 v 1 z m 14,-1 c -2,0 -2,-2 -1,-3 1,-1 4,0 4,2 1,1 0,2 -4,1 h 1 z m 40,0 c -1,-2 0,-2 2,0 1,1 1,2 0,2 -1,0 -1,0 -2,-1 v -1 z m -128,-1 c -1,-1 -4,-2 -5,-2 -3,0 -3,-1 -3,-2 0,-1 1,-2 2,-2 2,0 2,-1 1,-4 -1,-1 0,-2 1,-1 1,0 2,2 2,3 1,4 2,4 6,4 3,0 3,0 3,2 0,2 -2,3 -4,3 0,0 -2,-1 -3,-1 z m 151,-6 c -4,-5 -8,-6 -16,-6 -5,0 -7,-1 -7,-1 0,-2 2,-2 8,-2 8,0 14,4 18,11 1,2 -1,2 -3,-1 v -1 z m -232,-1 c 0,0 -1,-1 -1,-2 0,-1 -2,-3 -4,-5 l -4,-4 c 1,-1 8,3 8,6 1,2 3,2 4,1 1,-1 2,-1 3,1 1,1 2,3 2,3 0,1 -8,2 -9,1 l 1,-1 z m 30,0 c 0,-1 2,-1 3,-1 2,0 2,0 1,1 -2,1 -4,1 -4,0 z m 131,0 c 0,-1 0,-2 1,-2 1,0 1,0 1,1 0,1 0,1 -1,2 -1,0 -1,0 -1,-1 z m -98,-1 c 0,-1 4,-3 5,-2 v 2 c -1,2 -5,2 -5,0 z m 86,1 c -1,-1 -1,-2 1,-2 1,0 2,1 2,2 0,2 -1,2 -2,1 l -1,-1 z m 54,-1 c -1,-1 -1,-1 0,-1 2,0 3,2 2,2 l -2,-1 z m -150,0 c 0,-1 0,-3 2,-6 2,-5 5,-6 6,-3 1,2 -7,10 -8,9 z m 118,-3 c -1,-5 0,-7 3,-6 1,1 2,1 1,4 -1,7 -3,7 -4,1 v 1 z m -190,1 c 0,-1 0,-1 1,-1 h 1 c 0,0 0,1 -1,1 h -1 z m 7,0 c 0,-1 1,-1 3,-2 2,0 2,0 2,1 0,1 -1,1 -3,2 -2,0 -2,0 -2,-1 z m 139,-2 v -1 l 2,1 c 1,1 0,1 0,1 l -2,-1 z m 33,-1 c -1,-1 -1,-2 1,-2 3,-1 4,0 3,2 -1,2 -3,2 -4,0 z m -253,-1 v -2 -3 c -1,-2 -1,-2 1,-1 1,0 4,1 7,1 5,0 8,2 7,3 0,0 -2,1 -4,0 -2,0 -4,0 -6,1 -3,2 -4,2 -4,0 l -1,1 z m 133,1 c -5,-1 -6,-1 -4,-5 2,-3 2,-3 7,-3 5,0 6,0 7,-1 2,-2 2,-2 3,0 1,2 1,2 -3,6 -2,2 -5,4 -6,4 -1,0 -4,0 -6,-1 h 2 z m 151,0 c -1,-1 2,-2 4,-2 1,0 1,1 1,2 0,1 -4,1 -4,0 h -1 z m -126,-1 c -1,-2 0,-4 2,-4 1,0 1,1 1,2 0,3 -3,4 -3,1 v 1 z m 10,0 v -2 c 0,0 0,-2 -1,-4 -1,-3 -1,-3 2,-2 3,0 3,1 2,4 -1,4 -3,7 -4,5 l 1,-1 z m -142,-1 c -7,-1 -7,-3 -3,-9 3,-5 2,-6 -1,-2 -3,3 -7,6 -8,6 -3,0 4,-8 10,-11 2,-1 2,-1 3,1 1,2 3,3 4,1 1,-2 2,-1 4,2 2,4 4,4 6,1 2,-4 4,-3 4,2 0,3 1,4 2,5 l 2,2 c 0,2 -5,3 -6,2 0,-1 -1,-1 -2,-1 -1,0 -2,-1 -2,-2 -2,-5 -6,-7 -10,-3 l -2,2 4,2 c 2,1 5,2 6,2 1,0 2,0 1,1 -1,1 -5,2 -9,1 l -3,-2 z m 36,-2 c -5,-1 -2,-5 3,-5 1,0 3,-1 5,-2 4,-3 10,-2 10,2 0,2 -1,2 -6,2 -5,0 -6,0 -6,2 0,1 -1,2 -2,2 -1,0 -2,0 -4,-1 z m 119,0 v -4 c 1,-2 0,-3 -1,-2 h -4 l -2,-1 2,-2 c 2,-1 3,-3 3,-6 0,-4 1,-5 3,-6 3,-1 3,-1 6,0 1,1 3,2 3,4 0,1 1,3 2,4 1,1 2,3 2,4 0,2 3,4 4,2 1,-1 2,-1 5,1 5,3 7,2 8,-3 0,-2 1,-3 1,-4 1,-1 1,-2 1,-3 0,-2 -1,-2 -2,-2 -1,0 -4,-1 -6,-3 -4,-3 -3,-5 0,-3 4,2 14,5 16,5 1,0 2,1 3,2 1,1 3,2 4,2 4,0 4,1 0,4 -3,2 -5,2 -5,-1 0,-3 -3,-3 -7,-2 -3,2 -3,2 -3,7 0,4 0,5 -2,7 -3,2 -13,2 -13,1 0,-1 -1,-1 -3,0 -2,2 -3,1 -5,-1 -3,-3 -6,-2 -8,1 -1,2 -3,2 -3,1 l 1,-2 z m -194,-2 c 0,0 1,-1 3,-1 h 3 c 0,0 -1,1 -3,1 h -3 z m 259,1 c 0,0 -1,-1 -1,-2 0,-1 0,-1 1,0 1,1 1,2 1,2 0,1 -1,1 -1,0 z m -94,-6 c -3,-4 -3,-5 1,-4 3,1 4,3 3,6 -1,2 -1,2 -4,-2 z m 90,-3 c -2,-1 -2,-1 0,-2 2,-1 7,1 8,2 1,2 -5,2 -7,0 h -1 z m -175,0 c -1,-1 -1,-4 1,-5 2,-1 7,0 8,2 v 2 c -1,1 -8,2 -9,1 z m -13,-2 c 0,0 -1,-1 -1,-2 0,-1 0,-1 1,0 1,1 1,1 1,2 h -1 z m -678,-6 c 3,-4 5,-5 5,-3 0,0 -2,2 -4,4 l -4,3 3,-4 z m 795,2 c 0,-1 2,-3 4,-3 2,0 1,3 -1,3 h -3 z m -126,-2 c 0,-1 0,-2 1,-2 1,0 1,1 1,2 0,1 0,2 -1,2 -1,0 -1,-1 -1,-2 z m 120,0 c 0,0 -1,-2 -1,-3 0,-1 -1,-3 -1,-3 -2,-2 1,-7 4,-7 3,0 4,-1 5,-4 1,-4 6,-5 7,-1 2,3 -1,6 -8,10 -6,3 -6,3 -5,6 1,3 0,4 -1,3 v -1 z m -101,-4 c 0,-2 1,-2 2,-2 3,0 4,4 0,4 -2,0 -3,-1 -3,-2 h 1 z m 119,-4 c 0,-1 0,-2 1,-2 1,0 1,1 1,2 0,1 0,2 -1,2 -1,0 -1,-1 -1,-2 z m -134,-1 c -1,-2 2,-7 6,-9 3,-1 5,-3 6,-4 2,-2 3,-2 7,2 l 4,4 h -3 c -2,0 -6,1 -9,4 -9,5 -9,6 -10,4 l -1,-1 z m -10,-1 c 0,-1 1,-1 2,-1 1,0 2,0 2,1 0,1 -1,1 -2,1 -1,0 -2,0 -2,-1 z m 154,-2 c -1,-1 -1,-2 0,-2 1,-1 3,1 3,2 0,1 -2,1 -3,0 z m -182,-1 c -2,-2 -1,-3 2,-3 2,0 3,0 3,2 0,2 -3,3 -5,1 z m 6,-12 c -1,-1 -1,-2 0,-3 1,-1 2,-1 2,0 1,2 -1,4 -2,2 v 1 z m -705,-6 c 1,-1 2,-2 2,-2 1,0 0,1 0,2 -1,1 -2,2 -2,2 -1,0 0,-1 0,-2 z m 695,-5 c -3,-2 -5,-4 -5,-5 0,-1 0,-1 2,0 5,2 12,7 12,8 0,2 -4,1 -9,-3 z m -396,1 c 0,0 1,-1 2,-2 2,-1 3,-1 1,1 -1,2 -3,2 -3,1 z m 588,-12 c 0,-1 0,-1 1,-2 h 1 c 0,0 0,1 -1,2 h -1 z m -217,-8 v -1 c 1,0 1,0 1,1 v 1 l -1,-1 z M 625,885 c 0,-2 3,-4 22,-16 26,-16 38,-23 40,-24 2,-1 2,0 -1,3 -2,2 -6,5 -9,6 -7,4 -35,22 -41,27 -5,4 -12,6 -12,4 h 1 z m 28,-34 c 0,-1 1,-1 2,-1 1,0 1,0 0,1 -1,1 -1,1 -2,1 -1,0 -1,0 0,-1 z m 4,-3 c 0,-1 17,-13 20,-14 2,-1 2,-1 1,1 -2,2 -19,14 -20,14 -1,0 -1,0 -1,-1 z m 38,-7 c 2,-2 5,-3 5,-1 0,1 -4,3 -6,3 0,0 0,-1 1,-2 z m 28,-16 c 3,-2 7,-5 8,-5 2,-1 2,-1 1,1 -2,2 -9,6 -12,7 -2,0 0,-1 4,-4 l -1,1 z m 12,-6 c 0,0 1,-1 3,-2 2,-1 5,-3 8,-5 3,-2 6,-4 6,-4 1,0 16,-9 18,-11 1,-1 4,-2 6,-3 2,-1 6,-2 9,-4 13,-9 14,-10 16,-9 1,0 5,-1 10,-4 10,-6 21,-13 22,-15 1,-1 6,-5 7,-5 1,0 1,1 1,2 0,3 8,0 8,-3 0,-1 1,-2 2,-2 2,0 2,0 1,4 -1,7 -1,7 -16,13 -2,1 -6,3 -9,5 -4,3 -13,6 -22,9 -2,1 -6,3 -10,5 -4,2 -9,5 -11,6 -3,1 -11,5 -18,8 -31,16 -32,16 -32,14 l 1,1 z m -25,-4 c 1,-1 2,-1 2,-1 1,1 -2,2 -3,2 -1,0 0,-1 1,-1 z m 12,-7 c 0,-1 1,-1 2,-2 1,0 3,-1 3,-2 1,-1 2,-1 3,-1 1,0 0,2 -3,3 -4,3 -5,3 -5,2 z m 11,-7 c 1,-1 6,-3 7,-2 1,1 -5,4 -7,4 -1,0 -1,0 0,-1 v -1 z m 11,-5 c 0,-2 25,-17 28,-17 3,0 -13,11 -22,16 -5,2 -5,3 -5,1 h -1 z m -23,-5 c 2,-1 4,-2 4,-2 0,0 -1,1 -3,2 -4,2 -5,2 -1,-1 v 1 z m 11,-6 c 2,-1 4,-2 4,-2 1,1 -6,5 -7,5 -1,0 1,-1 3,-3 z m -17,-2 c -1,-1 -1,-2 0,-5 1,-4 9,-9 35,-21 10,-5 21,-10 24,-12 3,-2 7,-4 9,-5 2,-1 5,-3 8,-5 3,-2 7,-5 9,-6 2,-1 5,-3 6,-4 1,-1 3,-2 4,-2 2,0 19,-8 26,-12 4,-2 8,-6 9,-8 1,-2 3,-3 4,-3 1,0 3,-1 3,-3 1,-2 2,-3 4,-3 1,0 3,-1 3,-3 2,-4 5,-7 7,-6 1,0 3,0 5,-2 2,-1 4,-3 4,-3 1,0 2,-1 3,-2 1,-1 2,-2 3,-2 1,0 3,-1 5,-2 2,-1 5,-3 6,-3 3,-1 4,-4 1,-10 -1,-2 -2,-4 -1,-5 1,-2 2,0 2,3 0,2 1,3 3,3 3,1 4,2 2,4 -1,1 0,2 2,3 l 3,3 c 0,2 3,5 5,5 0,0 2,-1 3,-3 2,-3 2,-3 4,-1 1,1 2,2 2,3 0,1 2,1 5,0 2,-1 7,-2 10,-3 3,-1 6,-2 6,-3 1,-2 8,-6 9,-5 1,1 1,1 -1,3 -1,1 -4,3 -5,4 -2,1 -4,2 -6,3 -2,1 -4,2 -6,2 -2,0 -4,1 -6,3 -2,3 -3,3 -9,3 -7,0 -7,0 -11,-3 -3,-3 -4,-4 -4,-6 1,-3 -2,-4 -5,-2 -1,1 -3,3 -5,4 -1,1 -5,3 -7,5 -2,2 -6,4 -8,5 -2,1 -3,2 -3,2 0,1 -1,1 -2,2 -1,0 -4,2 -6,4 -2,2 -8,6 -12,9 -4,3 -9,6 -11,9 -2,2 -10,7 -19,11 -8,4 -18,9 -21,11 -8,6 -28,17 -38,22 -19,9 -27,14 -33,19 -2,2 -6,4 -8,5 -2,1 -5,2 -6,3 -1,1 -2,0 -3,-1 l 2,1 z m 142,-2 c 0,-1 1,-2 2,-1 1,0 2,1 2,1 0,1 -1,1 -2,1 -1,0 -2,0 -2,-1 z m -156,-3 c 1,-1 1,-2 2,-2 1,0 0,1 -1,2 -1,1 -1,2 -2,2 -1,0 0,-1 1,-2 z m 151,0 v -2 c 1,-1 4,2 3,3 -1,1 -2,1 -3,-1 z m -53,-12 c 0,-1 6,-4 7,-4 1,1 -5,5 -6,5 l -1,-1 z m -88,-7 c 0,-4 -1,-5 -5,-3 -4,2 -3,0 1,-5 8,-10 18,-19 29,-26 6,-4 16,-11 22,-16 6,-5 14,-11 17,-12 3,-2 9,-5 13,-8 4,-3 10,-7 13,-9 7,-4 31,-19 38,-24 4,-3 12,-11 13,-14 0,-1 1,-1 2,0 1,1 1,2 0,3 -2,1 -2,1 0,2 3,2 0,4 -12,15 -6,5 -14,12 -18,16 -4,3 -8,7 -10,8 -2,1 -7,5 -12,10 -5,5 -11,10 -14,12 -5,3 -12,9 -26,20 -2,2 -6,4 -8,5 -2,1 -6,3 -8,6 -2,2 -6,5 -8,6 -2,1 -5,3 -6,4 -1,1 -4,3 -5,4 -1,1 -5,4 -9,7 -3,3 -6,6 -7,6 0,0 -1,-2 0,-4 v -3 z m 175,1 v -2 c 1,-1 5,1 5,2 0,1 -4,1 -5,0 z m -106,-5 c 0,-2 4,-4 7,-4 h 3 l -3,2 c -3,2 -7,3 -7,2 z m 99,-1 c 0,-1 1,-1 1,-1 2,1 2,3 0,3 -1,0 -2,-1 -2,-2 h 1 z m 40,-29 c 0,-1 4,-4 8,-6 2,-1 5,-3 6,-4 1,-1 3,-2 4,-2 1,0 2,-1 3,-2 1,-1 2,-2 2,-2 1,0 0,2 -2,4 -2,2 -4,4 -5,4 -1,0 -4,1 -6,3 -7,5 -10,7 -10,5 z m -98,-12 c 0,-1 2,-4 4,-6 2,-2 3,-2 3,1 0,2 -1,3 -3,4 -3,2 -4,2 -4,1 z m 108,-4 c 1,-1 5,-2 4,-1 0,1 -1,1 -3,2 -1,0 -2,0 -2,-1 h 1 z m 15,0 c 0,-1 1,-1 2,-2 1,0 3,-2 5,-3 2,-1 7,-5 11,-8 4,-3 8,-6 9,-7 1,-2 8,-2 8,0 0,1 -1,2 -4,2 -2,0 -4,1 -4,1 0,0 -2,2 -5,4 -3,2 -7,5 -9,6 -2,2 -5,3 -6,3 -1,0 -2,1 -3,2 -2,2 -4,2 -4,0 v 2 z m -9,-4 c 0,-1 1,-2 3,-2 1,0 3,-1 4,-2 1,-2 4,-2 4,-1 0,1 -8,6 -10,6 -1,0 -1,-1 -1,-2 v 1 z m 10,-8 c -1,-1 -5,-2 -8,-2 -8,-1 -8,-2 -1,-2 4,0 8,-1 11,-2 5,-2 22,-10 26,-12 2,-1 3,-1 4,-1 1,1 -1,4 -3,4 -1,0 -4,1 -5,4 -3,3 -8,7 -17,12 -4,2 -4,2 -7,0 v -1 z m -62,-1 c 0,-1 1,-2 2,-2 2,0 2,0 1,2 -1,1 -2,2 -2,2 0,0 -1,-1 -1,-2 z m -36,-1 v -1 l 1,1 v 1 l -1,-1 z m 45,-4 c -1,-1 6,-6 9,-7 2,-1 3,1 2,3 -1,2 -10,5 -10,4 h -1 z m 33,-1 c -1,-1 -2,-5 0,-5 1,0 3,4 3,6 0,1 -2,0 -3,-1 z m -72,-1 c -1,-2 -1,-6 0,-6 1,0 1,1 1,2 0,1 0,3 1,4 1,3 -1,3 -2,1 v -1 z m 137,-3 c 0,-1 3,-1 6,-2 3,-1 8,-2 10,-3 6,-2 9,-2 7,0 -1,1 -5,2 -10,4 -9,2 -15,3 -14,1 h 1 z m -6,-7 c 0,-1 2,-1 3,-1 1,0 2,0 1,1 0,1 -2,1 -3,1 -1,0 -2,0 -1,-1 z m 35,0 c 0,-1 3,-2 6,-4 6,-2 9,-4 13,-6 1,-1 3,-1 3,-1 1,1 -1,3 -6,5 -2,1 -4,2 -4,2 0,1 -10,5 -11,5 l -1,-1 z m -146,-2 c 0,-1 1,-3 2,-3 1,-1 2,-1 1,2 0,3 -3,5 -3,2 v -1 z m 40,-7 c -1,-3 0,-10 1,-10 1,0 1,1 1,4 0,2 -1,5 -1,6 -1,2 -1,2 -2,0 h 1 z m 79,0 c 0,-1 1,-2 1,-2 1,0 10,-7 15,-12 2,-2 6,-5 8,-6 2,-1 7,-4 10,-6 5,-3 12,-9 19,-15 2,-2 5,-4 7,-6 4,-4 4,-6 0,-6 -4,0 -5,-2 -2,-4 1,-1 3,-2 3,-3 0,-1 1,-2 2,-2 2,-1 2,-1 2,2 0,2 0,3 -2,3 -1,0 -2,0 -2,1 0,1 4,3 7,3 3,0 3,0 2,2 -2,3 -5,7 -8,7 -1,0 -3,2 -4,3 -3,5 -16,16 -25,20 -10,5 -13,7 -20,13 -9,8 -10,9 -12,9 -2,1 -2,0 -2,-1 h 1 z m -129,-2 c 0,-1 0,-1 1,-2 h 1 c 0,0 0,1 -1,2 h -1 z m 89,0 c -1,-1 3,-5 5,-5 2,0 8,-4 18,-10 7,-5 14,-8 15,-7 1,1 -1,3 -3,4 -2,1 -5,3 -11,7 -6,4 -21,13 -22,13 -1,0 -1,-1 -2,-1 v -1 z m -88,-13 c -4,-1 -4,-3 1,-7 4,-4 7,-5 3,-1 -2,2 -3,5 -1,5 1,0 8,-4 18,-11 3,-2 7,-4 9,-5 4,-1 17,-10 34,-23 5,-4 11,-9 15,-11 7,-5 14,-15 25,-36 5,-9 10,-17 10,-16 1,1 -3,12 -4,15 -1,2 -1,4 -1,5 0,2 1,2 8,-5 4,-4 9,-9 11,-11 6,-8 14,-15 23,-21 9,-6 20,-17 23,-22 2,-3 2,-3 -1,-3 -2,0 -2,0 1,-2 2,-1 5,-3 6,-4 3,-2 3,-2 2,-4 -1,-2 -1,-2 1,-4 1,-1 2,-3 2,-5 0,-2 0,-3 1,-4 1,-1 5,-10 5,-10 l -4,1 c -3,2 -4,2 -5,0 -2,-2 -2,-2 1,-4 2,-1 4,-3 6,-4 4,-2 19,-16 22,-22 3,-5 3,-5 4,-3 1,2 1,3 -2,7 -2,3 -6,8 -9,12 -3,4 -6,8 -6,8 -2,1 -5,8 -5,13 v 5 c 1,0 8,-4 10,-6 4,-5 5,-8 5,-12 -1,-3 0,-4 3,-7 2,-2 5,-4 8,-5 3,-1 6,-2 7,-4 2,-2 3,-2 5,-2 2,1 11,-3 11,-5 0,-1 0,-3 -1,-4 -2,-3 -2,-3 1,-6 1,-1 3,-2 4,-2 2,0 3,-5 3,-8 v -2 c 1,0 2,8 1,10 -1,1 -1,3 0,6 1,2 2,5 2,7 0,2 1,3 2,3 1,0 4,-8 4,-11 0,-1 1,-2 2,-3 1,-1 2,-3 1,-4 0,-1 0,-3 2,-4 1,-1 2,-3 2,-4 0,-1 0,-2 1,-2 2,-1 2,0 0,3 -1,1 -2,5 -2,7 0,3 -1,5 -3,7 -1,2 -2,4 -2,4 0,1 1,0 1,-1 1,-3 4,-3 4,0 0,2 6,3 9,2 2,-1 3,-1 3,1 1,2 6,3 7,1 0,0 2,-1 3,-1 1,0 3,-1 4,-2 1,-1 2,-2 4,-3 3,-2 3,-2 3,1 0,1 -1,4 -2,7 -1,3 -2,6 -2,8 0,2 -1,4 -3,7 l -3,3 h 2 c 1,0 3,0 4,-1 1,-1 2,-2 3,-2 2,0 2,0 2,3 0,2 -1,3 -1,4 0,1 6,2 9,1 1,0 5,-2 9,-3 4,-1 8,-2 10,-3 h 4 l -3,2 c -1,1 -5,3 -8,5 -3,1 -7,3 -8,4 -2,1 -3,1 -5,0 -2,-1 -3,-1 -7,0 -3,1 -6,2 -8,1 -2,0 -4,0 -5,1 -2,1 -7,-1 -7,-3 0,-1 2,-2 3,-3 4,-2 5,-5 4,-7 -1,-1 -1,-2 0,-5 1,-2 1,-4 1,-5 0,-2 -3,-2 -5,0 -1,1 -4,2 -7,3 -3,0 -6,1 -8,1 -4,1 -8,4 -8,6 0,1 1,2 2,3 1,1 2,3 2,4 0,2 0,2 4,2 3,0 4,0 5,1 0,1 -1,2 -2,3 -5,2 -7,3 -11,6 -2,1 -5,2 -6,2 -2,0 -2,0 -1,-1 1,-1 2,-2 3,-3 1,-2 1,-2 -2,-2 -3,0 -3,0 -3,-5 0,-3 0,-5 -1,-5 -5,-2 -10,-5 -10,-7 0,-1 -1,-3 -2,-3 -2,-1 -2,0 -4,3 -1,2 -3,6 -4,9 -2,5 -2,5 0,7 1,1 2,2 1,4 -1,2 0,3 3,5 l 4,4 c 0,0 -2,2 -5,3 -10,5 -16,7 -28,8 -7,0 -12,1 -14,2 -3,2 -10,8 -20,17 -5,5 -12,11 -15,14 -6,6 -8,9 -4,10 3,1 2,3 -1,2 -2,0 -3,1 -6,4 -6,7 -12,16 -17,23 -2,4 -5,8 -6,8 -3,3 -6,7 -6,8 0,1 0,1 -1,1 -1,0 -1,1 -1,2 0,1 -1,2 -2,3 -1,1 -2,2 -2,2 0,0 -1,4 -3,7 -2,5 -3,6 -5,6 -1,0 -3,1 -4,2 -2,2 -7,4 -7,2 0,-1 0,-1 1,-1 1,0 1,-1 2,-2 1,-1 2,-3 3,-3 1,0 2,-1 2,-2 0,-1 1,-2 2,-3 4,-4 2,-4 -3,0 -3,2 -6,4 -7,5 -1,1 -4,2 -5,3 -1,1 -4,3 -7,3 -2,0 -6,2 -10,5 -3,2 -8,5 -10,6 -2,1 -6,3 -9,4 -2,1 -7,3 -10,4 -3,1 -12,5 -19,9 -14,7 -18,9 -23,7 l 4,3 z m 215,-155 c 5,-1 6,-2 3,-4 -1,-1 -3,-3 -4,-5 -1,-2 -2,-3 -3,-3 -1,0 -3,1 -5,3 -2,2 -4,3 -6,4 -4,2 -3,5 2,6 4,1 5,1 12,0 l 1,-1 z m -86,143 c 0,-1 0,-1 1,-2 h 1 c 0,0 0,1 -1,2 h -1 z m 4,-4 c 0,-1 3,-4 5,-4 2,0 2,2 0,4 -1,1 -5,2 -5,0 z m -124,-1 c 0,0 0,-1 1,-1 h 1 c 0,0 0,1 -1,1 h -1 z m -39,-8 c 1,-2 4,-3 4,-1 0,1 -3,3 -4,3 v -2 z m 171,1 c 0,-1 8,-9 9,-8 1,1 -5,8 -7,9 -1,0 -2,0 -2,-1 z m -149,-5 c -1,-1 0,-2 1,-2 1,0 1,1 0,2 -1,1 -1,1 -2,0 h 1 z m 214,0 c 0,-1 0,-2 1,-3 4,-3 5,-1 1,2 -1,1 -2,1 -3,1 h 1 z m -210,-5 c 1,-2 14,-17 15,-19 3,-3 12,-8 13,-8 2,0 1,3 -3,6 -2,2 -8,7 -14,13 -5,5 -10,10 -11,10 -1,0 -1,0 -1,-1 l 1,-1 z m 158,-2 c 0,-1 2,-3 4,-6 2,-3 4,-5 4,-6 0,-1 1,-2 2,-3 1,-1 2,-2 1,-3 -1,-2 1,-5 3,-5 1,0 3,7 2,9 0,1 -2,2 -3,2 -2,1 -3,2 -3,3 0,2 -7,9 -9,9 -1,0 -1,-1 -1,-1 v 1 z m 68,-6 c 0,-2 4,-5 5,-4 1,1 -3,6 -4,6 l -1,-1 v -1 z m -19,-4 c 1,-4 7,-8 7,-4 0,2 -5,7 -7,7 -1,0 -1,-1 -1,-2 l 1,-1 z m 8,-8 c 0,-1 1,-1 2,-1 1,0 1,0 0,1 0,1 -1,1 -2,1 -1,0 -1,0 0,-1 z m -88,-3 c 7,-8 12,-12 12,-11 0,2 -11,14 -13,14 -1,0 0,-1 1,-3 z m 90,-4 c -6,-1 -6,-1 -7,-6 -1,-2 -3,-5 -5,-7 -2,-2 -3,-3 -3,-4 l 6,1 c 5,1 5,2 6,5 1,4 2,5 8,5 3,0 5,-1 8,-2 2,-1 4,-3 5,-3 2,0 6,-3 10,-7 5,-5 11,-9 12,-9 1,0 1,1 1,2 0,2 -13,15 -17,17 -1,1 -4,3 -6,4 -3,2 -11,6 -13,6 l -5,-1 v -1 z m -31,-4 c 1,-2 3,-2 3,0 0,1 -1,2 -2,2 -1,0 -1,-1 -1,-1 v -1 z m 70,-11 c -1,-1 0,-3 2,-3 1,0 1,3 0,3 h -2 z m -32,-16 c -3,-1 -6,-3 -6,-4 -1,-2 0,-6 2,-6 0,0 1,1 1,2 0,1 1,2 3,2 2,0 14,-6 15,-8 0,-1 1,-1 2,-1 1,0 0,1 -1,2 -1,1 -4,4 -5,5 -2,2 -3,3 -4,3 l -1,1 c 0,3 11,-1 21,-7 4,-2 7,-4 8,-4 0,0 -1,2 -4,5 -6,5 -18,12 -22,12 -1,0 -5,-1 -8,-3 l -1,1 z m -51,-1 c -4,-3 -4,-3 -2,-8 1,-3 2,-3 3,-3 1,1 1,2 0,4 -1,2 -1,3 0,4 2,2 10,3 12,2 1,-1 4,-1 7,-2 3,0 5,-1 6,-2 2,-2 5,-2 5,-1 0,0 -3,2 -5,3 -3,1 -5,2 -6,3 -1,1 -4,2 -8,2 -6,1 -7,0 -10,-2 h -2 z m 34,-8 c -3,-2 -1,-4 3,-5 3,-1 5,-2 8,-5 3,-3 4,-4 5,-3 2,2 0,4 -7,10 -5,5 -7,5 -10,4 l 1,-1 z m -47,-5 c 0,-1 1,-1 2,-1 1,0 1,0 1,1 0,1 -1,1 -2,1 -1,0 -2,0 -1,-1 z m 8,-1 c -1,-1 -1,-2 0,-4 1,-4 3,-3 3,1 0,3 -1,4 -3,3 z m 85,-13 c 0,-2 1,-2 5,-3 2,0 7,-2 10,-4 8,-4 9,-3 2,2 -7,5 -8,6 -13,7 -4,1 -4,1 -4,-2 z m 45,-1 c -1,-1 2,-5 4,-5 2,0 2,3 0,5 -1,1 -3,2 -4,0 z m -9,-1 c 0,-1 1,-1 2,-1 1,0 1,0 1,1 0,1 -1,1 -2,1 -1,0 -1,0 -1,-1 z m 6,-8 c 1,-5 1,-5 5,-6 l 3,-1 -2,3 c -1,2 -2,3 -2,4 0,1 -1,2 -2,3 -2,2 -2,2 -1,-3 h -1 z m -188,-2 c 0,-1 1,-1 2,-1 1,0 4,-1 7,-3 4,-2 6,-2 6,-2 1,1 -1,2 -4,4 -5,3 -12,3 -10,2 h -1 z m 80,-4 c -1,0 -1,-1 -1,-2 0,-2 0,-2 2,-1 3,1 4,2 3,3 -1,1 -2,1 -4,0 z m -86,-2 c 0,-2 4,-5 5,-4 1,1 -3,6 -4,6 l -1,-1 v -1 z m 205,-2 c 0,-1 13,-9 14,-9 2,0 0,2 -5,6 -5,4 -10,6 -10,3 h 1 z m -144,-2 c -2,-3 -4,-4 -10,-4 -4,0 -6,0 -7,2 -1,1 -3,2 -4,2 -1,0 -1,-1 3,-3 2,-1 6,-4 7,-5 l 3,-3 2,3 c 1,1 3,3 4,3 1,0 2,1 2,2 0,1 1,1 5,1 5,-1 6,1 1,3 -4,2 -4,2 -5,0 l -1,-1 z m 79,-1 c 0,-4 2,-7 4,-7 3,0 3,6 0,8 -3,2 -4,2 -4,-2 v 1 z m -112,0 c 0,-1 0,-1 1,-1 1,0 2,0 2,1 0,1 0,1 -1,1 -1,0 -2,0 -2,-1 z m 122,0 c 0,-1 0,-1 1,-2 11,-4 18,-6 16,-4 -1,1 -9,5 -13,6 -2,0 -4,0 -4,-1 v 1 z m 218,-1 c 0,-1 0,-1 1,-1 h 1 c 0,0 0,1 -1,1 h -1 z m -185,-7 c -2,-4 0,-6 4,-3 3,2 3,2 7,0 6,-2 21,-10 23,-12 1,-1 2,-1 3,-1 0,0 0,1 -1,2 -1,1 -4,3 -7,5 l -5,4 h 3 c 4,0 5,2 3,4 -2,2 -8,2 -9,0 -1,-1 -7,-1 -8,0 -1,1 -4,2 -7,2 -5,1 -5,1 -6,-2 v 1 z m 137,-3 c 0,-4 2,-5 7,-4 l 4,1 -5,3 -5,3 v -2 l -1,-1 z m -294,0 c 0,-1 1,-2 2,-2 1,0 0,2 -1,3 -1,0 -1,0 -1,-1 z m 287,0 c -1,-1 1,-3 4,-4 3,-1 3,1 1,3 -2,2 -4,2 -5,1 z m -267,-2 c 0,-1 5,-9 5,-9 v 5 c 0,4 0,5 -3,5 -2,0 -3,0 -3,-1 h 1 z m 133,-3 c 0,-1 -2,-1 -4,-1 -2,0 -4,-1 -4,-1 -1,-1 -3,-1 -4,-1 -6,0 -4,-2 4,-5 10,-4 14,-4 8,0 -5,3 -5,6 -1,5 2,0 4,-1 6,-2 6,-4 7,-4 8,-3 0,0 0,2 -2,2 -1,1 -4,3 -5,5 -3,3 -4,4 -5,2 l -1,-1 z m 82,-1 c 1,-2 8,-7 10,-7 2,0 1,2 -2,4 -2,1 -3,2 -4,3 -2,2 -4,2 -4,0 z m -117,-2 c 0,-2 3,-4 5,-3 2,1 2,1 -1,3 -3,2 -4,2 -4,1 v -1 z m -113,-3 c 1,-5 3,-9 6,-10 3,-2 3,-1 1,2 -2,3 -1,4 3,3 3,-1 4,-1 4,0 0,1 -2,2 -4,3 -2,1 -5,3 -6,4 -1,1 -2,2 -3,2 -1,0 -1,-1 -1,-3 v -1 z m 172,-1 c -1,-2 2,-4 6,-4 3,0 19,-8 25,-13 l 4,-3 3,2 c 3,3 3,4 0,4 -1,0 -3,0 -3,-1 0,-2 -3,-1 -4,2 -1,1 -2,3 -3,3 -1,0 -4,1 -7,3 -15,8 -20,10 -21,8 v -1 z m -9,-2 c -1,-1 5,-4 7,-3 1,1 1,2 0,3 -1,2 -6,2 -7,1 v -1 z m 79,0 c 0,-1 2,-3 4,-3 2,0 2,0 0,2 -2,2 -5,3 -5,1 h 1 z m -219,-3 c 0,-2 1,-4 1,-5 0,-1 1,-2 3,-2 2,0 5,-1 6,-2 2,-1 4,-2 5,-2 2,0 -3,5 -7,8 -2,1 -4,3 -5,4 -2,3 -4,3 -3,-1 z m 254,-5 c 0,-1 0,-1 2,-1 1,0 2,0 2,1 0,1 -1,1 -2,1 l -2,-1 z m -26,-2 c 0,-1 1,-2 2,-2 1,0 2,1 2,2 0,1 -1,2 -2,2 -1,0 -2,-1 -2,-2 z m -145,-1 c 0,-2 6,-6 7,-5 0,0 0,2 -1,3 -1,2 -2,3 -4,3 -1,0 -3,-1 -3,-1 h 1 z m 108,-4 c -1,-1 9,-7 11,-7 0,0 3,-1 5,-3 4,-3 5,-3 5,-1 0,1 -5,5 -7,5 -1,0 -3,2 -7,4 -6,4 -6,4 -7,3 v -1 z m -13,-9 c 1,-2 4,-4 5,-3 1,0 1,1 1,3 0,2 -1,2 -3,2 -2,0 -3,0 -3,-1 v -1 z m 11,0 c 2,-2 4,-2 3,0 0,1 -2,1 -3,2 -2,0 -2,0 0,-1 v -1 z m -162,-2 c -1,-2 3,-5 4,-4 1,1 -1,6 -3,6 -1,0 -1,-1 -1,-1 v -1 z m 161,-4 c 0,-1 0,-1 1,-1 h 1 c 0,0 0,1 -1,1 h -1 z m -32,-5 c 0,-2 -5,-6 -8,-7 -3,0 -4,-2 -1,-3 1,0 3,-1 4,-2 2,-2 6,-1 6,1 0,1 1,2 2,3 2,1 4,2 12,1 5,0 11,-1 12,-1 2,-1 2,0 2,1 0,1 -2,2 -6,4 -13,4 -24,6 -24,3 h 1 z m 39,-1 c 0,-1 1,-1 2,-2 2,0 2,0 1,1 -2,2 -3,2 -3,0 v 1 z m -5,-9 c 2,-1 4,-1 4,0 0,1 -1,1 -3,1 -2,0 -2,0 -1,-1 z m -57,-5 c -1,-1 -2,-2 -2,-3 0,-1 -1,-1 -2,-2 -3,-1 1,-10 5,-10 3,0 4,3 1,5 l -2,2 h 6 c 4,0 7,-1 9,-2 6,-4 10,-5 10,-3 0,3 -12,12 -14,11 l -4,1 c -5,2 -5,2 -7,0 v 1 z m 78,-4 c 0,0 -1,-1 -1,-2 0,-1 2,-1 6,-1 6,0 7,1 2,3 -4,1 -6,1 -7,0 z m -18,-1 c -1,-2 4,-4 8,-3 5,0 6,2 4,3 -2,1 -12,1 -12,0 z m -7,-5 c -2,-1 0,-4 2,-4 1,0 3,0 5,-1 2,-1 2,0 2,1 0,1 -1,2 -2,2 -1,0 -2,1 -4,1 -1,1 -3,1 -3,0 v 1 z m -22,-1 c 0,-1 0,-1 1,-2 2,-1 3,0 1,1 -1,1 -2,1 -2,0 v 1 z m 56,-4 c 0,-1 1,-1 2,-1 1,0 2,0 1,1 0,1 -1,1 -2,1 -1,0 -1,0 -1,-1 z m 9,-1 h 2 c 1,0 1,1 -1,1 -1,0 -2,0 -1,-1 z m -52,-1 c 0,-1 0,-1 1,-1 1,0 1,0 1,1 0,1 0,1 -1,1 -1,0 -1,0 -1,-1 z m 31,-1 c -1,-2 -1,-2 5,-2 5,1 6,2 3,3 -4,1 -7,1 -7,-1 h -1 z m 28,1 c 2,-2 7,-2 8,-1 1,1 1,2 -4,2 -3,0 -5,0 -4,-1 z m -52,-1 c 0,0 1,-2 3,-3 l 3,-2 -3,1 c -2,0 -3,0 -4,-2 -1,-1 -2,-2 -3,-1 h -3 c -1,-1 -1,-1 2,-3 l 3,-2 1,2 c 0,2 1,2 4,2 2,0 3,0 3,-1 0,-1 2,-1 5,-1 3,0 5,0 6,-1 1,-1 3,-1 6,0 3,1 8,1 11,1 5,0 8,2 5,3 -1,1 -12,2 -20,1 -6,0 -9,1 -9,4 0,1 -1,2 -1,2 -1,0 -3,0 -5,1 h -3 l -1,-1 z m -28,-2 c -1,0 -1,-1 -1,-2 0,-2 4,-4 8,-4 1,0 3,-1 4,-3 3,-3 3,-3 5,1 1,3 1,3 0,5 -1,1 -3,2 -6,2 -2,0 -5,1 -6,1 -1,1 -2,1 -4,1 v -1 z m 78,-3 c -1,-2 0,-3 2,-1 1,1 1,1 0,2 h -2 v -1 z m -100,-2 c 0,0 1,-1 1,-2 2,-1 3,0 2,2 -1,1 -4,1 -4,0 h 1 z m 95,0 c 0,-1 1,-1 2,-1 1,0 1,0 1,1 0,1 -1,1 -2,1 -1,0 -1,0 -1,-1 z m 6,-9 c 0,-1 1,-1 2,-1 1,0 1,0 1,1 0,1 -1,1 -2,1 -1,0 -1,0 -1,-1 z m -63,-4 c -1,-1 -1,-2 -1,-3 1,-2 2,-1 3,1 0,1 1,2 1,3 1,2 -1,1 -3,-1 z m 415,-3 c -1,-2 1,-2 2,-1 1,1 1,1 0,1 -1,0 -2,0 -2,-1 v 1 z m -1,-6 c 0,0 -1,-1 -1,-2 0,-1 0,-1 1,0 1,1 1,1 1,2 h -1 z m -429,-13 c 1,0 5,-2 9,-4 7,-4 9,-6 5,-6 -2,0 -3,-1 -3,-2 0,-3 2,-4 5,-3 2,1 5,6 4,7 -7,6 -13,9 -18,9 -2,0 -3,0 -2,-1 z m -14,-1 c -2,0 -3,-1 -3,-3 0,-2 1,-2 6,-2 3,0 6,0 7,-1 3,-1 3,0 1,1 -1,1 -3,2 -4,3 -1,1 -2,2 -3,2 -1,0 -3,0 -4,-1 v 1 z m 439,-2 c 0,-1 0,-2 1,-2 1,0 2,4 1,4 -1,0 -1,-1 -1,-2 h -1 z m -7,0 c -1,0 -3,-1 -5,-1 -2,0 -5,-1 -7,-1 l -4,-1 4,-1 c 5,-1 16,3 14,4 h -2 z m -423,-14 c -2,-3 -2,-4 0,-4 1,0 1,1 1,2 0,1 0,2 1,2 2,0 2,2 1,2 0,0 -2,-1 -3,-2 z m 11,-5 c 3,-1 7,-2 8,-3 1,0 3,-1 4,-2 1,-1 2,-1 2,0 2,2 -1,4 -7,5 -3,0 -7,1 -9,1 -4,0 -4,0 2,-2 v 1 z m 18,-9 c -1,-2 1,-4 2,-2 1,1 1,2 0,3 -1,1 -2,1 -2,0 v -1 z m 291,-4 c -1,-1 -2,-2 -4,-2 -2,0 -9,-6 -9,-8 0,-2 4,-1 6,2 1,1 3,3 4,3 3,0 6,3 5,6 0,2 0,2 -2,0 v -1 z m -304,0 c -1,-1 0,-3 2,-3 1,0 3,-1 5,-1 2,-1 3,-1 4,0 2,3 1,4 -4,4 h -5 -2 z m -4,-3 c 0,-1 1,-1 2,-1 1,0 1,0 1,1 0,1 -1,1 -2,1 -1,0 -1,0 -1,-1 z m 337,-3 c -2,0 -3,-1 -3,-2 0,-2 1,-2 6,0 5,2 5,3 -3,2 z m -12,-3 c 0,-1 1,-1 1,-1 1,1 1,2 -1,2 -1,0 -1,-1 -1,-1 h 1 z m -17,-3 c 0,-1 0,-2 1,-1 v 2 c 0,1 -1,1 -1,-1 z m -6,-5 c -3,-2 -2,-3 1,-2 1,1 3,2 3,2 0,1 -1,1 -3,0 h -1 z m 30,-3 c -1,-2 0,-3 2,-1 1,1 1,1 0,2 h -2 v -1 z m -308,-3 c 0,-2 3,-3 4,-2 1,1 1,1 0,2 -2,1 -4,1 -4,-1 v 1 z m 357,-1 v -2 c 1,-1 1,-1 2,0 1,1 1,2 1,2 -1,1 -3,1 -4,0 h 1 z m -67,-4 c 0,-1 1,-1 1,-1 2,1 2,3 0,3 -1,0 -2,-1 -2,-2 h 1 z m 6,1 c 0,-1 1,-1 2,-1 1,0 2,0 1,1 -1,1 -1,1 -2,1 -1,0 -1,0 -1,-1 z m 53,-4 c 0,-1 0,-2 1,-2 1,0 1,1 1,2 0,1 0,2 -1,2 -1,0 -1,-1 -1,-2 z m 30,0 c 0,-1 -1,-2 0,-2 1,-1 2,0 1,2 0,1 -1,1 -1,0 z m -72,-2 c -1,-1 -1,-2 0,-2 1,0 2,1 2,2 v 2 l -2,-2 z m 86,-1 c 0,-1 1,-2 2,-3 1,-1 2,-2 3,-3 1,-2 1,-1 4,2 2,2 3,4 3,4 0,0 -3,1 -6,1 -4,0 -6,0 -6,-1 z m -77,-2 c -1,-1 0,-3 2,-3 2,0 2,0 1,2 -1,3 -2,3 -3,1 z m 173,-2 c -1,-3 0,-5 3,-5 3,0 4,2 2,5 -2,2 -5,2 -6,0 h 1 z m -83,-1 v -1 l 1,1 v 1 c -1,0 -1,0 -1,-1 z m -18,-2 c -1,-1 0,-8 1,-8 l 3,3 c 2,2 2,3 1,4 -1,2 -5,3 -6,2 l 1,-1 z m -101,-4 c -4,-2 -4,-2 -2,-5 2,-2 2,-2 4,-1 1,1 3,1 4,1 2,0 6,-3 6,-5 0,-2 2,-2 3,-2 1,1 1,1 -1,3 -4,4 0,7 5,3 1,-1 4,-1 7,-1 4,0 6,-1 7,-2 1,-1 3,-2 5,-1 2,0 5,0 7,-1 2,-1 5,-2 7,-2 2,0 5,-1 9,-2 3,-1 8,-2 11,-2 3,0 9,-1 13,-1 8,-1 36,-3 57,-3 13,0 28,1 34,3 2,1 13,1 23,2 29,1 27,1 24,-3 -1,-1 -2,-5 -2,-7 -1,-4 -1,-5 2,-4 1,0 3,1 3,2 0,1 1,3 2,4 1,1 1,3 1,4 0,5 5,9 12,9 2,0 2,0 -1,-2 -2,-1 -3,-3 -4,-3 -1,0 -1,-1 -1,-1 0,-1 -1,-2 -2,-3 -1,-1 -1,-3 -1,-3 1,-2 1,-2 3,0 3,2 15,8 17,8 1,0 8,2 12,5 2,1 3,6 2,8 -2,2 -9,-1 -9,-4 0,-1 -1,-2 -3,-3 -6,-1 -7,-1 -7,-1 0,0 2,1 4,3 2,1 3,3 3,3 -1,1 -4,1 -14,-2 -12,-3 -33,-6 -45,-6 -7,0 -22,-1 -33,-2 -20,-2 -67,-2 -69,0 -1,1 -15,3 -25,4 -6,1 -14,3 -19,4 -2,1 -4,1 -6,1 -2,0 -5,0 -6,1 -3,1 -20,4 -24,4 -2,0 -3,1 -4,2 -2,2 -2,2 -6,-1 l -3,-1 z m -9,-1 c -1,-3 1,-4 3,-3 1,1 2,2 1,3 -1,2 -3,2 -4,0 z m 205,-3 c 0,-1 0,-1 1,-1 1,0 1,0 1,1 0,1 0,1 -1,1 -1,0 -1,0 -1,-1 z m -101,0 c 0,0 0,-1 1,-1 h 1 c 0,0 0,1 -1,1 h -1 z m 17,-3 c -1,-1 -1,-2 0,-2 1,-1 4,1 4,3 0,1 -3,1 -4,-1 z m -93,-5 c 2,-3 6,-6 6,-4 0,2 -5,7 -7,7 -1,0 -1,-1 0,-2 l 1,-1 z m 6,-8 c 0,-1 0,-1 1,-1 1,0 1,0 1,1 0,1 0,1 -1,1 -1,0 -1,0 -1,-1 z m 34,0 c 0,-1 0,-1 1,-2 1,0 1,0 1,1 0,1 0,2 -1,2 -1,0 -1,0 -1,-1 z m 153,-4 c 0,-1 1,-2 2,-2 3,0 4,2 2,2 -3,1 -4,1 -4,-1 v 1 z m -218,0 c -1,-1 0,-2 2,-2 1,0 1,1 1,1 -1,1 -2,1 -3,0 v 1 z m 194,-1 c 0,-2 2,-4 2,-2 1,1 0,4 -2,4 0,0 -1,-1 -1,-2 h 1 z m -159,-1 c 1,-2 6,-8 7,-8 1,1 -4,8 -5,9 -2,1 -3,1 -2,-1 z m -21,-3 c -1,-2 -1,-3 0,-3 1,0 3,4 2,4 -1,0 -1,0 -2,-1 z m 188,0 c -2,-2 0,-4 4,-4 h 7 c 3,0 4,0 4,2 0,2 0,2 -2,1 -1,0 -4,0 -6,1 -5,2 -6,2 -7,0 z m -138,-2 c 0,-1 1,-1 2,-1 1,0 1,0 1,1 0,1 -1,1 -2,1 -1,0 -1,0 -1,-1 z m 12,-3 c 0,-1 0,-1 1,-1 1,0 1,0 1,1 0,1 0,1 -1,1 -1,0 -1,0 -1,-1 z m 21,0 c 0,-1 0,-1 1,-1 h 1 c 0,0 0,1 -1,1 h -1 z m 85,-1 c -1,-1 -1,-2 1,-2 1,0 2,1 2,1 0,1 -1,1 -2,0 l -1,1 z m -53,-4 c 0,-1 1,-2 1,-3 1,-1 1,-2 1,-3 0,-2 4,-8 6,-8 1,0 2,-1 3,-2 1,-1 2,-1 3,-1 1,1 2,1 3,1 1,0 3,1 4,2 3,4 2,7 -6,10 -7,3 -15,4 -15,2 v 2 z m 7,-2 c 2,-1 2,-2 0,-2 -2,0 -3,1 -2,2 1,1 1,1 3,0 h -1 z m -86,-9 v -2 c 0,0 1,1 1,2 v 2 c -1,0 -1,-1 -1,-2 z m 76,-3 c 0,-1 1,-1 2,-1 1,0 1,0 1,1 0,1 -1,1 -2,1 -1,0 -1,0 -1,-1 z m -318,-9 c 5,-4 8,-5 5,-1 -3,4 -5,5 -7,5 -2,0 -1,-1 2,-4 z m 258,-3 c 0,-1 0,-1 1,-1 h 1 c 0,0 0,1 -1,1 h -1 z m -20,-8 c -2,-1 -1,-3 1,-3 2,0 4,-3 4,-5 0,-1 -2,-1 -4,-1 -5,0 -5,-3 1,-4 3,-1 5,0 9,2 4,2 4,2 3,3 -6,1 -6,1 -8,5 -2,4 -3,4 -5,3 h -1 z m -221,-2 c 1,-1 1,-1 2,-1 1,1 -1,3 -2,3 -1,0 -1,-1 0,-2 z m 8,-2 c -2,-1 -2,-6 0,-5 h 3 c 2,0 3,1 3,3 v 3 l -2,1 c -1,0 -2,0 -3,-1 l -1,-1 z m 85,0 c 0,-1 0,-1 1,-1 1,0 2,0 2,1 0,1 0,1 -1,1 -1,0 -1,0 -2,-1 z m 26,-6 c -6,-3 -8,-5 -5,-6 2,-1 15,2 15,3 0,1 0,2 -1,2 -1,0 -1,1 -1,2 0,3 -1,2 -8,-1 z m 189,1 c 0,-1 -2,-1 -4,-1 -2,0 -3,0 -3,-1 0,-1 1,-1 2,0 1,0 2,0 3,-1 1,-2 1,-2 3,0 1,1 2,3 2,3 0,2 -2,2 -3,0 z m -294,-1 c 0,-1 0,-1 1,-1 1,0 1,0 1,1 0,1 0,1 -1,1 -1,0 -1,0 -1,-1 z m 86,-1 c -5,-2 -4,-4 2,-5 h 6 c 0,0 0,2 1,3 0,2 0,3 -2,3 -1,0 -4,0 -6,-1 h -1 z m -28,-2 c -4,-1 -4,-2 0,-4 3,-1 4,-1 7,0 l 3,1 -2,2 c -1,1 -3,2 -3,2 l -4,-1 h -1 z m 17,0 c -1,-1 -1,-2 1,-2 1,0 2,-1 2,-2 0,-1 1,-2 1,-2 1,0 1,0 0,3 -1,3 -2,4 -4,2 v 1 z m 170,-3 c 0,-2 0,-4 -1,-4 -1,0 -1,-1 -1,-3 0,-2 0,-2 1,-2 1,0 1,1 1,2 0,1 1,3 2,5 2,4 2,5 -1,5 -1,0 -1,-1 -1,-3 z m -95,1 c -1,-2 0,-3 7,-4 3,-1 3,0 3,1 0,4 -8,6 -10,3 z m 103,-3 c 1,-3 1,-4 -1,-6 -2,-3 -2,-4 -1,-4 0,0 2,2 2,5 1,4 1,5 1,7 -2,4 -3,3 -2,-1 l 1,-1 z m 30,-1 c 1,-3 2,-3 5,-1 5,2 4,4 -2,4 h -5 l 2,-3 z m -282,0 c 0,-1 9,-5 14,-6 3,0 4,0 4,1 0,2 -2,3 -8,4 -3,0 -6,1 -8,1 h -3 1 z m 181,0 c -2,-3 5,-8 7,-5 1,1 0,2 -3,5 -3,2 -4,2 -4,1 v -1 z m -19,-1 c 0,-1 0,-1 1,-1 1,0 2,0 2,1 0,1 0,1 -1,1 -1,0 -1,0 -2,-1 z m 33,0 c -1,-1 2,-2 4,-2 1,0 2,1 2,2 0,1 -5,1 -6,0 z m -134,-2 c -3,-1 -7,-2 -13,-2 -5,0 -9,-1 -9,-1 0,-1 10,-3 13,-3 2,0 4,0 6,1 2,1 4,1 6,1 3,1 7,3 6,4 -2,2 -6,1 -10,0 h 1 z m 85,1 c -1,-1 1,-3 3,-3 1,0 1,1 1,2 0,2 -3,2 -4,1 z m 66,0 c -2,-1 -2,-1 -1,-2 2,-1 7,1 7,2 0,1 -3,1 -6,0 z m -182,-1 c 0,-2 4,-5 5,-5 2,1 -1,5 -3,6 -1,0 -2,0 -2,-1 z m 81,0 c -2,0 -3,-1 -3,-3 0,-5 0,-6 -1,-7 0,-1 0,-2 1,-2 2,-2 9,3 7,5 -1,1 -2,1 -3,1 -1,0 -1,1 -1,2 0,2 2,2 2,0 0,-1 4,-1 9,-1 6,0 9,0 10,2 3,3 0,4 -10,4 h -12 l 1,-1 z m -88,-4 c 0,-1 1,-1 2,-1 1,0 1,0 1,1 0,1 -1,1 -2,1 -1,0 -1,0 -1,-1 z m 211,0 v -1 l 2,1 c 1,1 0,1 0,1 l -2,-1 z m 30,-2 c -1,-3 1,-6 3,-4 1,1 0,5 -1,5 0,0 -1,-1 -1,-2 l -1,1 z m -254,-1 c 0,-1 1,-3 2,-3 2,-1 2,2 0,4 -1,1 -2,1 -1,-1 h -1 z m 4,0 c -1,-1 3,-3 5,-3 1,0 1,1 0,2 -1,2 -4,2 -4,0 l -1,1 z m 204,-2 c -1,-1 0,-2 1,-1 1,1 1,1 1,2 l -1,-1 h -1 z m 11,-1 c -1,-2 -1,-3 -1,-3 1,0 4,5 3,5 -1,0 -2,-1 -3,-2 h 1 z m -201,-1 c 0,-2 -1,-2 -5,-1 -4,0 -5,0 -5,-1 0,-4 10,-7 23,-6 7,0 9,1 8,2 -1,2 -9,2 -10,0 -2,-2 -5,1 -6,5 -1,3 -4,4 -5,1 z m 13,1 c 0,-1 1,-1 2,-1 1,0 2,0 2,1 0,1 -1,1 -2,1 -1,0 -2,0 -2,-1 z m 204,-1 c 0,-1 0,-2 3,-2 3,0 3,0 2,2 -1,1 -2,2 -3,2 -1,0 -2,-1 -2,-2 z m -191,-4 c -2,-1 0,-4 3,-4 3,0 6,1 4,3 -1,1 -7,2 -8,1 h 1 z m 23,-4 c 1,-2 2,-2 3,0 0,1 0,1 -1,1 -1,0 -2,0 -1,-1 h -1 z m -15,-4 c -2,-2 -1,-3 5,-3 6,0 8,1 6,3 -1,2 -9,2 -11,0 z m -20,-5 c -1,-1 -1,-1 -1,-2 1,-1 4,0 4,2 0,1 -1,1 -3,0 z" inkscape:connector-curvature="0" style="fill:#2e2e2e"/>
  </g>
  <metadata id="metadata9">
    <rdf:RDF>
      <cc:Work>
        <dc:format>image/svg+xml</dc:format>
        <dc:type rdf:resource="http://purl.org/dc/dcmitype/StillImage"/>
        <cc:license rdf:resource="http://creativecommons.org/licenses/publicdomain/"/>
        <dc:publisher>
          <cc:Agent rdf:about="http://openclipart.org/">
            <dc:title>Open Clip Art Library</dc:title>
          </cc:Agent>
        </dc:publisher>
        <dc:title>Raven</dc:title>
        <dc:date>2010-01-23T09:49:02</dc:date>
        <dc:description>A simple raven</dc:description>
        <dc:source>http://openclipart.org/detail/29019/raven-by-pawelf</dc:source>
        <dc:creator>
          <cc:Agent>
            <dc:title>pawelf</dc:title>
          </cc:Agent>
        </dc:creator>
        <dc:subject>
          <rdf:Bag>
            <rdf:li>clip art</rdf:li>
            <rdf:li>clipart</rdf:li>
            <rdf:li>grey</rdf:li>
            <rdf:li>grey</rdf:li>
            <rdf:li>image</rdf:li>
            <rdf:li>media</rdf:li>
            <rdf:li>public domain</rdf:li>
            <rdf:li>raven</rdf:li>
            <rdf:li>raven</rdf:li>
            <rdf:li>svg</rdf:li>
            <rdf:li>unchecked</rdf:li>
          </rdf:Bag>
        </dc:subject>
      </cc:Work>
      <cc:License rdf:about="http://creativecommons.org/licenses/publicdomain/">
        <cc:permits rdf:resource="http://creativecommons.org/ns#Reproduction"/>
        <cc:permits rdf:resource="http://creativecommons.org/ns#Distribution"/>
        <cc:permits rdf:resource="http://creativecommons.org/ns#DerivativeWorks"/>
      </cc:License>
    </rdf:RDF>
  </metadata>
</svg>